<?xml version="1.0" encoding="UTF-8"?><svg xmlns="http://www.w3.org/2000/svg" xmlns:xlink="http://www.w3.org/1999/xlink" height="43.9" preserveAspectRatio="xMidYMid meet" version="1.0" viewBox="0.0 -0.3 289.8 43.9" width="289.8" zoomAndPan="magnify"><linearGradient gradientUnits="userSpaceOnUse" id="a" x1="0" x2="289.237" xlink:actuate="onLoad" xlink:show="other" xlink:type="simple" xmlns:xlink="http://www.w3.org/1999/xlink" y1="21.741" y2="21.741"><stop offset="0" stop-color="#d8b5ff"/><stop offset="1" stop-color="#ffd2df"/></linearGradient><path d="M36.78,41.08c1.51,0.34,1.46,0.28,3.09,0.98c-1.27,0.6-2.93,0.35-4.39,0.16 C36.17,41.64,36.08,41.66,36.78,41.08z M39.37,38.79c1.49,0.84,2.4-0.03,2.59-0.94C41.23,38.31,40.39,39.12,39.37,38.79z M32.93,38.55c-0.6-0.01-1.2-0.01-1.8-0.02C31.12,39.52,33,38.86,32.93,38.55z M43.75,41.31c0.12,0.6-0.7,0.5-0.78,0.95 c0.71-0.37,1.31-0.82,2.33-0.95C44.97,41.06,44.08,41.05,43.75,41.31z M43.26,36.32c0.3-0.03,0.73,0.04,0.77-0.19 c-0.68-0.59-1.01,0.67-1.8-0.01c-0.06,0.36,0.29,0.43,0.25,0.77c-0.78,0.05-2-0.22-2.06,0.37c2.11,0.23,3.57,1.11,5.16,0.03 C44.92,36.88,43.23,37.23,43.26,36.32z M47.38,37.11c0.95,0.69,1.89,0.87,3.35,0.4C50.63,36.37,48.46,36.91,47.38,37.11z M38.85,40.71c0.54-0.47,0.37-0.41,0.27-1.15c-0.82,0.23-2.03,0.27-2.33,0.37c0.3,0.03,0.28,0.31,0.25,0.58 C37.94,40.36,38.03,40.8,38.85,40.71z M35.23,41.07c-2.41-0.28-4.22,0.92-5.94,0.51c0.37-0.1,0.63-0.29,0.78-0.57 c-1.09,0.01-1.55,0.5-1.82,1.13c2.54-0.4,3.85-0.03,6.71,0.26C34.32,41.37,34.95,41.28,35.23,41.07z M23.16,35.38 c0.7-0.11,2.04,0.26,2.32-0.17C24.39,35.2,23.83,34.83,23.16,35.38z M30.61,38.34c3.8,0.41,6.4-1.49,9.03,0.08 c0.1-0.55,0.24-0.45,0.78-0.95c-0.2-0.05-0.3-0.16-0.26-0.39c-1.09-0.32-2.8,0.56-2.84-0.21c-0.99,0.22-1.66,0.68-2.58,0.94 c-0.38-0.36-1.33-0.3-1.28-0.97c0.56,0.27,1.38,0.6,1.8,0.02c-1.24,0.05-2.16-0.52-2.84,0.16c0.01-0.24,0.33-0.26,0.26-0.57 c-0.33-0.1-1.53-0.5-1.54-0.21c0.79,0.39-0.16,0.77-0.27,1.53c0.3,0.03,0.73-0.03,0.77,0.2C31.19,38.32,30.85,37.69,30.61,38.34z M31.69,33.36c1.02-0.06,1.57,0.47,2.06-0.17C33.13,33.3,31.88,32.93,31.69,33.36z M31.44,32.59c0.73-0.03,1.77,0.18,1.81-0.37 C32.43,32.19,31.69,32.2,31.44,32.59z M32.18,35.28c0.03-0.84,1.4,0.11,2.06,0.02c0.14-0.53,0.39-0.99,0.53-1.53 c-0.36,0-0.56-0.1-0.77-0.2c-0.43,0.38,0.02,0.24-0.01,0.77c-1.11,0.28-2.47-0.21-3.09,0.35C31.78,34.56,31.22,35.48,32.18,35.28z M38.87,36.87c0.32-0.28,1.03-0.25,1.04-0.76c-0.37,0.1-1.33-0.23-1.29,0.19C40.04,36.26,37.81,36.65,38.87,36.87z M49.7,36.55 c0.09-0.6-1.18-1.03-1.28-0.39C48.91,36.24,48.88,36.71,49.7,36.55z M87.33,33.46c0.06,0,0.14,0,0.21,0.01 C87.5,33.45,87.43,33.44,87.33,33.46z M79.35,35.03c-0.37,0.62-1.33,0.81-1.54,1.54c-0.97-0.15-0.02-0.67-0.52-0.96 c-0.61,0.12-1.87-0.23-2.06,0.2c0.86,0.17,0.23,0.43,0,0.77c1.43-0.34,1.08,0.32,2.06-0.2c0.05,0.29-0.09,0.71,0.26,0.77 c0.29-0.69,1.7,0.35,1.8-0.2c-0.43-0.26-0.89-0.49-1.03-0.96c0.54,0.21,0.55,0.2,0.26-0.19c0.45-0.02,0.8,0.04,1.03,0.19 C79.47,35.71,79.91,34.99,79.35,35.03z M85.8,36.92c-1.32-0.33-1.55,1.14-2.58,0.39c0.08-0.89,1.28-0.97,2.31-1.16l0,0.58 c0.7,0.01,0.52-0.32,1.03,0c0.04-0.23-0.05-0.54,0.26-0.58c2.17,0.6,6.23-0.06,6.94-2.15c-0.75-0.27-1.73-0.13-0.77-0.76 c-1.17-0.36-1.58-0.96-2.84-0.36c-0.13,0.6,0.61,0.78-0.25,0.96c-0.86-0.01-1.78-0.3-2.36-0.36c0.25,0.14-0.29,0.87,0.3,0.75 c0.47-0.22,1.58,0.41,2.58-0.01c0.45,0.17,0.89,0.35,0.78,0.95c-1.78-1.17-4.53,1.55-6.19-0.36c-0.15,0.34,0.31,1.13-0.25,1.15 c-2.26-0.79-1,0.12-3.1-0.37c0.38,0.72-0.7,0.37-0.51,0.96c0.19,0.36,0.77,0.13,0.26,0.57c0.43,0,0.86,0,1.29-0.01 c-0.4,0.75,0.67,0.39,0.78,0.76c-0.47,0.55-1.69,0.54-1.8,1.35c1-0.08,0.92-0.21,1.55,0.19c0.37-0.55,0.72-1.12,1.02-1.73 c0.41,0.08,0.22,0.6,1.03,0.38C85.01,37.36,85.93,37.52,85.8,36.92z M76.78,38.49c-0.04,0.63,1.51,1.16,1.81,0.38 C78.03,38.71,77.71,38.37,76.78,38.49z M82.16,29.64c0.81,0.09,0.68-0.52,1.28-0.58c0.67,0.4,0.22,0.75,0.52,1.15 c0.81,0.09,0.91-0.35,1.8-0.2c0.21-0.8-0.7-0.76-1.03-1.15c1.1,0.11,1.7-0.15,2.57-0.2c0.54,0.81,0.06,1.53,0.78,1.53 c0.19,0.52-1.21-0.13-1.03,0.39c0.62-0.08,0.56,0.35,1.29,0.18c0.76-0.71,1.15-1.7,2.05-2.31c-1.12-0.26-1.98-0.51-1.55-1.34 c-0.82,0.4-1.4-1.39-2.32-0.57c0.48,0.05-0.14,0.32,0.26,0.38c-0.09-0.1,1.41,0.21,1.54,0.57c-0.79-0.14-0.49,0.53-1.28,0.39 c-0.45-0.39,0.19-0.38-0.26-0.77c-0.92-0.29-0.15,0.65-0.77,0.58c-0.15-0.4-0.54-0.62-0.78-0.96c0.49-0.08,1.11-0.07,1.03-0.58 c-0.82,0.39-1.86-0.8-2.31,0.39c0.59-0.06,0.97,0.04,1.03,0.38c-0.38,0.45-0.54,0.36-0.25,0.96c-1.03,0.07-1.9,0.02-2.32-0.37 c-0.11,0.37-0.73,0.35-0.51,0.96c0.3,0.03,0.73-0.04,0.77,0.19C81.88,28.84,81.85,29.07,82.16,29.64z M72.14,37.55 c1.21-0.07,0.24-0.57,1.03-0.96c-0.34,0-0.69,0-1.03,0L72.14,37.55z M67.24,36.78c-0.06-0.15-0.01-0.38-0.26-0.38 c-0.11,0.37-1,0.15-0.78,0.77c0.49-0.04,0.57,0.22,1.03,0.19c-0.4-0.68,0.88-0.11,0.77-0.57C67.75,36.78,67.49,36.78,67.24,36.78z M69.56,41.19c0.45,0.07,1.6,0.58,1.81,0.19C71.06,40.8,70.17,40.68,69.56,41.19z M61.3,37.16c-0.51,0-1.03,0-1.55,0 c-0.11,0.37-0.56,0.48-0.51,0.96C60.75,38.13,60.05,37.64,61.3,37.16z M19.53,37.64c0.24-0.4,1.46-0.05,1.56-0.56 C20.2,36.88,18.95,37.38,19.53,37.64z M59.76,36c1.21,0.11,0.6,0.45,1.03,0.96c0.24-0.22,1.06-0.98,1.55-0.38 c-0.76,1.47-1.85,1.54-2.84,2.87c0.76-0.11,0.93-1.25,1.55-0.38c0.41-0.46,0.96-0.82,0.78-1.73c0.6-0.06,0.99,0.03,1.29,0.19 c-0.59-0.64-0.38-0.62,0-1.34C62.11,36.17,60.78,35.39,59.76,36z M71.36,36.97c-0.02-0.63-0.33-1.03-1.03-1.15 c0.06,0.81-1.67,0.29-2.06,0.77C69,37.21,70.24,37.6,71.36,36.97z M65.95,35.82c-0.11,0.37-0.74,0.35-0.52,0.96 C66.26,36.85,66.9,35.96,65.95,35.82z M13.31,39.28c0.73-0.19,1.08-0.18,1.8,0.03C15.34,38.62,13.18,38.82,13.31,39.28z M108.43,8.73c0.22,0.61-0.22,0.73-0.5,0.96c1.63,0.01,0.26-1.21,1.78-0.98c-0.58-0.4-2.05-0.39-2.56,0.22 C107.77,9.01,107.71,8.58,108.43,8.73z M96.92,9.8c-0.53,0.12-1.78-0.29-1.53,0.4C96.07,10.18,96.9,10.29,96.92,9.8z M135.77,6.21 c-0.28,0-0.44-0.32-1.28-0.17C135.73,6.82,139.15,6.22,135.77,6.21z M75.68,10.49c-0.3-0.22-0.9-0.21-1.54-0.19 C73.78,10.92,75.67,10.78,75.68,10.49z M49.82,10.27c0.31-0.76-1.71-0.09-0.76-0.77c-0.67-0.06-1.1,0.06-1.03,0.57 C48.71,10.08,49.49,10.01,49.82,10.27z M82.84,9.5c-0.65,0.35-1.45-0.36-1.79,0.39C81.8,10.14,82.53,10.04,82.84,9.5z M19.29,15.39 c0.98,0.11,0.18-1.15,1.04-1.14c-0.35,0-0.56-0.1-0.76-0.2C19.68,14.66,19.09,14.72,19.29,15.39z M223.63,1.43 c-0.55,0.24-1.65,0.11-1.77,0.65C222.46,2.43,223.14,1.72,223.63,1.43z M265.53,0c-2.11,0.23-4.15-0.28-6.35,0.91 C261.58,0.87,264.64,1.26,265.53,0z M233.86,1.37c-0.93,0.16-1.94,0.28-2.53,0.68C232.46,2.02,233.53,1.95,233.86,1.37z M267.41,1.44c0.04-0.61,1.33-0.45,1.53-0.08c-0.05,0.4-0.94,0.23-0.99,0.63c0.59,0.11,1.98-0.45,1.81,0.29 c-0.03,0.6-2.12-0.19-1.76,0.67c1.45-0.14,2.94-0.55,4.6-0.25c0.78-1.72-0.32-1.42-0.89-2.26c-1.85,0.82-3.12-0.15-5.09,0.65 C267.12,1.01,267.14,1.33,267.41,1.44z M17.7,38.97c0.54-0.11,1.69,0.26,1.81-0.17c-0.37-0.05-0.43-0.32-0.77-0.39 C18.85,38.93,17.78,38.57,17.7,38.97z M244.9,2c-0.86-0.01-1.1-0.55-1.82-0.68c-0.72,0.46-1.09,0.75-1.75,0.85 C242.36,2.27,243.76,2.39,244.9,2z M234.38,1.54c0.19-0.32,1.97-0.49,1.24-0.83C235.44,1.05,233.43,1.06,234.38,1.54z M252.04,1.47 c-0.57-0.09-1.93-0.39-2.03,0.29C250.61,1.61,251.87,1.91,252.04,1.47z M7.13,21.92c0.68,0.01,1.37,0.02,2.06,0.03 C9.33,21.24,7.01,21.2,7.13,21.92z M8.15,39.01c0.52-0.14,1.68-0.08,1.04-0.56c-0.48,0.48-3.12,0.97-4.41,1.47 c2.6-0.41,4.77,0.05,6.47-1.05C10.34,38.89,8.83,39.46,8.15,39.01z M6.17,34.19c0.49,0.37,0.47-0.11,1.29,0.02 c0.08-0.5-0.08-0.83-0.76-0.78C6.88,33.95,6.18,33.81,6.17,34.19z M5.2,30.33c0.59,0.1,1.81,0.71,2.31,0.23 C7.08,30.35,5.8,29.79,5.2,30.33z M10.58,14.69c0.08-0.26,0.37-0.36,0.27-0.76c-0.45-0.02-0.8,0.03-1.03,0.18 C9.64,14.61,10.34,14.48,10.58,14.69z M82.4,26.38c-1.41-0.76-2.47-0.29-2.83-0.18c1.72,0.74-0.24,1.97,1.3,2.87 c-0.13-0.99,0.11-0.83,0.77-0.96C81.39,27.17,81.95,26.81,82.4,26.38z M14.37,37.38c-0.45,0.07-0.66-0.3-0.78-0.01 c0.75,0.1-1.08,0.81-0.27,0.96C13.63,37.98,14.7,38.21,14.37,37.38z M6.9,36.88c0.5-0.07,1.11-0.05,1.04-0.56 c-1.13,0.06-1.32-0.57-2.31-0.61c0.18,0.53-0.52,0.38-0.53,0.76C6.68,36.38,6.32,36.25,6.9,36.88z M4.24,42.02 c-0.18,1.09-2.46,0.23-3.38,1.1c0.44,0.48,1.54,0.47,2.07,0.03c-0.3-0.03-0.74,0.02-0.77-0.2C3.55,43.36,5.39,42.3,4.24,42.02z M5.81,40.13c-0.81-0.1-0.74,0.47-1.04,0.75c0.75,0.11,2.28,0.16,2.33-0.35C6.39,40.86,4.46,40.7,5.81,40.13z M9.58,13.33 c-2.15-0.37-4.42,0.15-6.42,0.48C6.03,13.54,8.11,14.36,9.58,13.33z M2.91,13.61c-1.29-0.16-1.88,0.23-2.57,0.54 C1.26,14.67,2.52,14.11,2.91,13.61z M4.82,22.08c-0.44-0.11-3.01-0.51-2.32,0.35C3.05,22.04,4.17,22.68,4.82,22.08z M7.07,42.26 c-0.93,0.06-0.93,0.84-1.82,0.93C6.5,43.37,6.72,42.77,7.07,42.26z M57.18,36.96c-0.72,1.34-3.15-0.5-3.87,0.76 c-1.01,0.11-1.34-0.29-1.8-0.59c-0.09-0.7,1.48-0.17,1.04-1.14c1.29,0.07,3.05-0.21,3.61,0.39c-0.06,0.34-0.45,0.44-1.04,0.38 C55.6,37.41,56.16,36.89,57.18,36.96z M54.86,36.38c-0.6-0.17-1.09-0.22-1.81,0.18c0.54,0.11,0.74,0.48,1.55,0.39 C54.59,36.7,54.73,36.54,54.86,36.38z M122.25,8.16c0.18,0.04,0.44,0.01,0.49,0.15C123.06,8.12,123.01,7.95,122.25,8.16z M9.7,21.96 c0.78,0.02,1.31-0.15,1.55-0.55C10.57,21.2,9.79,21.25,9.7,21.96z M122.74,8.31c-0.02,0.01-0.04,0.02-0.06,0.04 c0.03,0,0.05,0,0.08,0C122.76,8.33,122.75,8.33,122.74,8.31z M17.64,24c-0.98-0.04-1.87-0.02-2.32,0.35 C16.26,24.65,16.88,24.68,17.64,24z M25.55,28.69c0.79,0.14,0.49,0.14,1.29,0.01c0.18-0.52-0.53-0.38-0.76-0.58 C26.01,28.39,25.65,28.44,25.55,28.69z M12.17,29.29c0.22-0.54-0.36-0.5-0.24-0.96c0.64-0.24,1.06,0.58,1.28,0.02 c-0.48,0-0.54-0.16-0.25-0.39c-0.78-0.15-0.76,0.32-1.54,0.17c0.14,0.69-0.31,0.92-0.54,1.33C11.49,29.55,11.44,29.12,12.17,29.29z M12.55,20.66c-0.07,0.51-1.09,0.71-0.53,1.14c1.08-0.08,1.91,0.01,2.05,0.61c1.29-0.3-0.17-1.85,1.31-1.71 c0.34-0.64-1.29-0.81-1.54-0.41c0.66,0.03,0.5,0.65,0.5,1.16C13.72,21.21,12.62,21.31,12.55,20.66z M279.92,18.8 c0.75-0.18,1.81-0.16,2.02-0.69C281.48,17.9,279.82,18.07,279.92,18.8z M266.75,32.4c0.18,0.6-0.45,0.62,0.05,0.96 c0.76-0.41,1.31-0.44,2.05-0.3C268.94,32.18,267.37,32.69,266.75,32.4z M268.73,30.76c-0.38-0.08-1.32,0.29-1.3-0.12 c0.56,0.01,0.81-0.2,0.74-0.62c-0.85-0.51-1.28,0.38-2.31,0.31C266.06,31.23,267.94,31.47,268.73,30.76z M274.33,29.3 c-0.86,0.17-1.87,0.25-2.28,0.71C272.8,29.77,274.1,29.89,274.33,29.3z M34.11,20.72c0.22-0.22,0.34-0.51,0.27-0.96 c-1.25-0.64-3.14,0.43-2.57,1.12c0.28-0.68,1.14-0.93,2.06-1.13C34.58,20.06,33.41,20.54,34.11,20.72z M91.54,26.88 c0.04,0.02,0.08,0.03,0.13,0.04C91.62,26.9,91.58,26.89,91.54,26.88z M42.58,20.97c0.05,0.02,0.1,0.02,0.15,0.03 C42.69,20.98,42.64,20.96,42.58,20.97z M286.58,9.39c-0.16-0.91,1.12-0.86,0.92-1.78C285.84,7.41,285.19,9.17,286.58,9.39z M75.73,29.67c-0.04-0.6,1.43-0.09,1.03-0.96c-0.44-0.54-1.18,0.74-1.8,0.01c0.9-0.16,0.99-0.93,1.28-1.54 c-0.45,0.02-0.8-0.04-1.03-0.19c-0.06,0.36,0.29,0.42,0.26,0.77c-0.38-0.03-0.95,0.07-1.03-0.19c0.64-0.34,0.27-0.25,0.25-0.96 c0.49-0.04,0.57,0.21,1.03,0.19c0.09-1.18-2.51-0.32-2.31,0.39c0.24,0.51,1.27,1.07,0.52,1.73C75.06,28.77,74.98,29.53,75.73,29.67z M45.67,19.46c-0.82-0.52-1.88,0.27-0.77,0.57C44.82,19.58,45.64,19.82,45.67,19.46z M58.75,24.3c0.51,0.06,0.51-0.26,0.77-0.38 c-0.03-0.49-0.05-0.99-0.77-0.96C59.28,23.84,58.18,23.63,58.75,24.3z M60.55,23.35c0.65,0.14-0.62,1.09,0.51,1.15 c-0.19-0.59,0.26-0.7,0.26-1.15C61.02,23.32,60.74,23,60.55,23.35z M63.12,24.69c-0.07,0.52-1.08,0.34-1.28,0.77 c0.62-0.08,0.56,0.35,1.28,0.19C63.29,25.27,64.01,24.83,63.12,24.69z M134.23,20.05c-0.01,0-0.01,0-0.02,0 c0.01,0.01,0.02,0.02,0.03,0.03C134.23,20.07,134.24,20.06,134.23,20.05z M50.25,30.41c-0.49,0.04-0.57-0.22-1.03-0.2 c0,0.45-0.45,0.56-0.26,1.15c0.51-0.05,0.51,0.26,0.77,0.39c-0.4-0.68,0.88-0.11,0.78-0.57C49.75,31.01,50.21,30.89,50.25,30.41z M66.2,29.3c-0.44-0.01-0.66,0.15-0.77,0.38c0.2,0.04,0.51,0.01,0.52,0.19c-0.03,0.48-0.49,0.6,0.26,0.77 c0.37-0.57-0.21-0.65,0.26-1.15C66.31,29.48,66.16,29.46,66.2,29.3z M59.26,27.37c-0.3-0.06-0.89-0.84-0.26-0.96 c1.01-0.31,0.09,0.83,0.77,0.77c0.75-0.31,0.28-0.47,0.26-1.15C58.29,25.63,57.74,28.03,59.26,27.37z M76.75,25.83 c-0.09-0.68-0.68-0.49-1.29-0.38C75.2,26.1,76.26,25.75,76.75,25.83z M288.28,3.52c-0.89-0.39-1.85-0.27-2.28,0.52 c-1.07,0.16-1.45-0.25-2.32-0.25c-0.06,0.8-0.4,0.08-0.71,1c-0.78,0.19-0.52-0.5-1.3-0.31c-0.02,0.62,1.13,0.25,1.08,0.9 c1.04-0.72,2.5,0.23,3.4,1.15c-0.69,0.18-0.54-0.35-1.05-0.32c-0.2,0.36-0.63,0.57-0.71,1c0.11,0.4,0.78-0.32,1-0.44 c0.06,0.31,0.5,0.21,0.57,0.93c-0.82-0.25-0.72-0.35-1.8-0.09c0.87,1.15-1.14,0.79-1.72,1.44c-0.01,0.35,0.34,0.39,0.3,0.75 c-1.44,0.27-1.74,1.3-2.72,1.89c0.05,0.15,0.26,0.18,0.28,0.37c1.49-1,2.59-1.12,3.45-2.5c0.64,0.13,0.62,0.81,1.58,0.68 c-0.7,0.34-1.16,0.83-1.72,1.25c0.02,0.18,0.32,0.13,0.52,0.16c-2.87,2.21-6.68,3.81-8.62,6.64c3.05-1.11,4.01-2.63,7.58-2.36 c-5.29,2.19-4.47,7.57-10.54,9.44c0.59,0.66-0.56,0.75,0.33,1.33c-1.15,0.22-2.13,0.55-3.04,0.93c0.12,0.16,0.25,0.33,0.53,0.36 c-0.13,0.47-1.29,0.17-1.05-0.33c-0.74,0.21-0.27,0.3-0.21,0.78c-1.07,0.11-1.02-0.2-1.8,0.09c-0.21-0.51,0.49-0.41,0.47-0.79 c-0.29,0.18-0.68,0.29-1.28,0.26c0.01,0.33,0.22,0.49,0.54,0.55c-0.46,0.31-1.2,0.43-2.04,0.49c0.46-0.36,0-0.67-0.8-0.53 c-0.22-0.51,0.49-0.41,0.47-0.79c-1.08,0.14-1.02,1.04-1.2,1.79c-1.5-0.07-2.18,0.39-3.59,0.38c-0.43,0.43-0.88,0.38-0.47,0.99 c-6.03-0.1-7.59,1.52-12.78,2.55c0.2,0.57,1.51,0.22,1.84,0.68c-1.45,0.04-2.16,0.64-3.56,1.13c-0.95-0.1-1.24-0.85-2.07-0.09 c2.07,0.06-1.41,0.82-0.44,1.75c-1.76,0.01-3.9,1.16-6.13,1.44c-0.3,0.04-0.2,0.36-0.23,0.59c-2.55-0.37-6.53,2.01-8.74,1.14 c-0.23-0.09-0.33-0.7-0.55-0.74c-1.71-0.33-2.89,0.92-4.88,0.59c-0.36-0.77-2.69,0.09-3.08,0.51c2.83-0.01,7.14-0.48,10.35,0.33 c-2.59,0.56-4.79-0.47-6.18,0.65c-0.98-0.87-3.49-0.15-4.64,0.39c-0.23-0.11-0.71-1.12-0.78-0.16c-0.88-0.1-0.28-0.63,0.23-0.78 c-0.27-0.25-0.45-0.56-0.8-0.74c0.36-0.79,0.87-0.31,1.78-0.65c-1.81-0.9-2.96,1-4.38,0.36c-0.86,0.21-0.11,0.36-0.22,0.97 c-0.78-0.55-1.57,0.81-2.32,0.28c-0.1-0.5,0.33-0.64,1.01-0.61c0.34-0.45-0.69-0.7-0.03-0.77c-0.19-0.72-1.07,0.25-1.06-0.73 c0.7-0.17,0.53,0.36,1.05,0.35c0.28-0.06,0.16-0.39,0.5-0.4c-0.93-0.63-1.78-0.66-3.65-0.82c0.41,0.62-1.79,0.82-2.04,0.84 c-0.27-0.68,1.01-0.31,1.53-0.44c-0.31-0.67-1.58-0.57-1.61-1.47c-0.75,0.19,0.35,0.47,0.04,0.96c-0.64-0.08-1.36-0.06-2.34-0.29 c0.73-0.57-0.41-0.51-0.55-0.94c-0.3,0.23-0.45,0.57-1.28,0.43l-0.02-0.58c-0.96,0.53-2.2-0.13-3.11-0.27 c-0.26,0.14-0.25,0.45-0.76,0.41c0.45,1.14-0.35,1.58-0.95,2.34c-0.32-0.29-1.16-0.48-0.55-0.94c-0.97-0.05-1.42,0.84-2.32,0.27 c-1.14,0.31-0.24,0.93-0.98,1.38c-0.65-0.98-2.81-0.6-3.64-0.65c-0.58-0.06-0.04-1.02-0.56-1.13c-1.03,0.39-0.71,0.6-1.25,1.19 c-1.05-0.66-1.08,0.11-0.75,0.79c-0.35-0.24-0.97-0.22-1.03,0.23c-0.06-0.78-4.08-1.12-4.4-0.24c-0.56-0.17-1.59-0.48-1.06-0.92 c-0.97,0.18-1.24-0.2-2.07-0.13c0.07,0.33,0.46,0.42,1.04,0.35c0.54,0.21-1.32,0.32-1.79,0.44c-0.14-0.41,0.36-0.38,0.76-0.41 c-1.12-1.01-2.36-1.02-3.63-0.66c0.04,0.49,1.11,0.17,0.8,0.94c-0.81,0.11-0.7-0.5-1.31-0.54c0.8,0.49-1.41,0.58-1.54,0.43 c0.35-0.32,1.27-0.24,1.53-0.62c0-0.66-2.2,0.15-1.57-0.72c-0.59-0.04-0.97,0.07-1.02,0.41c-0.36-0.18-0.53-0.5-0.79-0.75 c-0.37,0.05-0.07,0.58-0.5,0.59c-0.83,0.19-0.37-0.62-1.05-0.55c0.49-0.69,1.29-0.18,2.32-0.26c-0.29-0.53-1.03-0.21-0.54-0.94 c-0.72,0.22-1.07,0.23-1.8,0.05c0.16-0.7,1.03,0.01,2.06-0.25c0.09,0.39,0.53,0.5,0.79,0.74c0.15-0.51-0.22-1.32,1.51-1.39 c-0.17-0.19-0.6-0.18-0.53-0.56c-1.12,0.09-1.6,0.64-2.56,0.84c-0.07-0.54,1.1-0.58-0.27-0.57c-0.09-0.44,0.02-0.74,0.23-0.97 c-0.87-0.05-0.38,0.86-1.53,0.62c0.34,0.28,1.07,0.55,0.54,0.94c-1.71-0.49-1.74,0.07-3.62-0.28c0.14,0.28,0.4,0.47,0.53,0.75 c0.33-0.06,0.25-0.39-0.01-0.38c0.17-0.48,0.79,0.26,1.04,0.35c-1.23,0.83-1.67-0.92-2.58,0.07c0.09-0.26,0.45-0.31,0.5-0.59 c-1.21,0.36-0.24-0.11-1.05-0.55c-0.45,0.18-0.31,0.79-1.27,0.61c0.24-0.71-1.75,0.06-3.36-0.11c0.18,0.25,0.56,0.34,1.04,0.36 c-0.37,0.31-0.99,0.43-1.79,0.43c0.44,0.31,1.06,0.48,1.06,1.13c-1.51,0.37-1.29,0.97-0.73,1.74c-0.81-0.22-1.73-0.47-2.59-0.13 c0.47-0.35,0.02-0.67-0.79-0.56c-0.01-0.82,1.36,0.25,1.8-0.43c-0.76-0.2-2.53-0.68-2.31,0.44c-0.68,0.07-0.67-0.38-0.79-0.75 c0.37,0.01,0.73,0.02,0.77-0.21c-0.37-0.43-1.8-0.03-2.58-0.13c-0.14-1.13,1.33-1.6,2.29-1.4c0.04-0.55-0.09-0.97-0.54-1.14 c-0.54,0.06-0.05,0.85-0.49,0.97c-0.8,0.11-0.74-0.47-1.05-0.74c-0.31-0.05-0.87,0.57-0.24,0.58c-0.04,0.22-0.26,0.11-0.26,0.01 l-0.78,0.02c0.2-0.17,0.27-0.44,0.24-0.77c-0.82,0.21-0.61,0.56-1.04-0.17c-0.56-0.02-0.1,0.68-0.24,0.97 c-0.5-0.26-1.41-0.2-1.31-0.93c-1.55-0.07-2.52,0.09-2.3,0.82c0.8,0.12,0.48-0.54,1.28-0.41c-0.23,1.13,1.66,1.12,2.1,1.68 c-1.28,0.14-1.66-0.52-2.59-0.13c0.19,0.96,0.5,0.95,0.56,1.71c-0.57-0.21-1.06-0.47-2.07-0.34c0.63-0.59-0.86-0.78-1.31-1.12 c0.57,1.22-2.05,0.32-2.29,1.39c-0.74-0.11-0.42-0.44-0.31-0.84c-0.22,0.49-1.71,0.07-2.02,0.5c1.8,0.06,1.99,0.92,4.4,0.68 c0.04,0.34-0.3,0.41-0.24,0.77c-0.83-0.64-2.49,0.3-3.61,0.26c-0.45-1.97-2.43-3.09-4.68-1.64c0.01-0.75,0.86-0.9,1.26-1.37 c-0.33-0.77-1.03-0.96-2.07-0.73c-0.76-1.86-4.06-0.47-6.2-0.46c-0.37,0.05-0.08,0.57-0.5,0.58c0.25,0.52,1.41,0.34,1.05,1.32 c-0.81-1.23-3.58-0.93-3.85,0.65c-0.6,0.01-1.21,0.02-1.81,0.03c-0.04,0.74,1.21,0.5,1.05,1.33c-0.67,0.09-0.77,0.58-1.54,0.6 c-0.39-0.22-0.73-0.47-1.04-0.75c-0.3,0.03-0.21,0.35-0.25,0.58c-0.61-0.33-1.61-0.2-1.05-0.95c-1.06-0.13-0.03,1.24-1.28,0.98 c-0.07-0.56,0.58-0.6,0.5-1.16c0.03-0.42-0.92-0.07-1.29-0.17c-0.54,0.06-0.06,0.84-0.5,0.97l-1.03,0.01 c-1.03-0.76,0.48-2.23-0.3-2.87c0.06-0.45,1.13-0.13,1.29-0.02c-0.18,0.57-0.89,0.75-0.75,1.54c1.3-0.01,1.68-0.68,1.52-1.75 c0.56-0.13,0.83,0.53,0.77-0.2c0.62-0.08-0.13,0.88,0.78,0.57c0.43-0.79-0.03-1.86-0.55-2.49c-0.62-0.07,0.15,0.87-0.77,0.59 c0.15-1.36,1.9-1.2,3.09-0.62c-0.32,0.71-1.18,1.04-1.26,1.94c0.04,0.43,0.65-0.26,1.29-0.02c-1,0.45-1.08,0.96-0.75,1.93 c-0.54-0.07-0.68,0.14-1.03,0.21c-0.07,0.51,1,0.14,0.78,0.76c0.31-0.75,1.6,0.19,2.05-0.6c-0.07-0.17-0.97-0.63-1.03-0.18 c-0.96-0.12,0.78-1.1-0.53-0.95c0.05-0.62,1.36-0.23,1.55,0.17c0.96-0.44,1.51-1.18,2.03-1.95c-0.51-0.47-1.48,0.31-1.54,0.79 c-0.76-0.32-1.12-0.95-1.32-1.71c0.34-0.32,1.46-0.09,1.8-0.41c-0.01-0.38-0.71-0.23-0.53-0.76c1.12-0.18,1.15-0.06,2.06-0.23 c-0.07-0.34-0.45-0.43-1.04-0.36c-0.08-0.44,0.74-0.23,0.77-0.59c-0.36-0.3-0.92-0.46-0.79-1.14c-1.27-0.48-2.62-0.92-3.37-1.3 c-0.53,0.06-0.51,0.52-0.76,0.78c-1.25-0.73-1.31,0.21-2.04,0.8c-1.44-0.25-2.04-0.41-3.09,0.23c-0.58-0.52,0.02-1.39,0.23-1.92 c0.69,0.81,1.78-0.7,2.57-0.04c-0.32-0.79-1.4-0.99-2.08-1.51c-0.33,0.52-0.6,1.08-1.01,1.55c-0.61-0.05-0.49-0.66-1.29-0.56 c0.65-0.8,1.11,0.37,1.8-0.41c-0.45-0.31-0.94-0.57-1.81-0.55c-1.11,0.16,0.39,1.03-1.02,0.97c-0.18,0.52,1.21-0.15,1.03,0.37 c0.09,0.78-0.36-0.03-1.03,0.21c0.8,1.19-2.08,1.68-1.51,2.7c-0.72-0.29-2.18-0.01-2.32-0.74c-0.56-0.03-0.82,0.17-0.77,0.59 c0.9,0.15,1.54,0.49,2.58,0.54c-0.59,0.53-1.35,0.92-2.83,0.81c0.82,1.04-0.78-0.36-1.02,0.78c2.03,0.7,2.85-0.21,4.63-0.64 c-0.66,0.81,0.22,0.79,0.53,1.33c-0.85,0.36-2.17-0.46-2.31,0.61c-1.25,0.15-2.67-1.05-2.83,0.42c-0.61-1-2,0.45-2.58,0.02 c-0.11,0.73,0.68,1.36,0.02,1.92c-0.33-0.66-0.94-1.09-1.31-1.71c-1.91,0.23-1.89-0.31-3.35-0.16c-0.83-0.66,1.15-1.38-0.53-1.53 c0.24-0.39,0.98-0.42,1.8-0.4c0.18,0.7-0.55,0.74-0.5,1.35c0.45,0.25,1.35-0.78,1.79-1.17c0.41,0.08,0.23,0.6,1.04,0.38 c0.65,0.24-1.36,0.13-1.03,0.78c1.36-0.15,4.11-0.93,5.14-1.97c-1.24-0.32-0.85-0.72-1.81-1.13c-0.42,0.27,0.67,0.79-0.25,1.15 c-0.53-0.51-0.48-0.56-1.55-0.37c-0.26-0.57,0.57-0.34,1.03-0.39c0.09-0.6-1.4-0.98-1.55-0.75c-0.38-0.48-0.43-1.22-1.56-1.14 c-0.09,0.58,0.94,0.32,1.04,0.76c-0.55,0.84-2.02-0.11-3.09,0.41c0.37,0.43,0.84,0.78,1.3,1.14c-1.89,0.13-4.2,0.86-6.18,1.21 c-0.37,0.73,0.71,0.36,0.52,0.95c-0.44,0.04-0.67-0.32-0.78,0.01c-0.67-0.04,0.35-0.33-0.01-0.77c-1.52-0.19-0.92,0.45-1.28,0.78 c-1.06,0.07-0.03-1-0.01-1.34c0.79-0.15,0.76,0.32,1.55,0.18c-0.28-1.53-2.3,0.4-2.59-1.13c0.6-0.07,0.99,0.02,1.29,0.18 c-0.29-0.66-1.87-0.56-2.58-0.36c0.47-0.7-0.24-1.26-1.04-1.52c-1.38,0.02-4.73,0.34-6.69,0.03c-0.47-0.15,0.15-0.21,0.51-0.19 c0.53-0.05,0.06-0.85,0.77-0.77c0.7,0.69,1.41,0.52,2.58,0.18c-1.01,0.54,2.57,0.67,2.32-0.01c0.31,0.36,1.93,0.71,1.8-0.21 c0.65,0.34,2.04-0.06,2.83-0.22c-0.24-0.34-0.58-0.59-1.04-0.76c-0.35,0.13-0.48,0.41-0.51,0.77c-0.38,0.01-0.82-0.8-0.77,0.01 c-1.09-0.21-2.37-1.28-2.84-1.32c-0.78-0.23,0.27-0.66-0.01-1.15c0.6,0.06,1.21,0.11,1.03,0.76c0.73-0.44-0.37-1.12-0.01-1.92 c0.68,0.05,0.84-0.27,0.77-0.78c0.6-0.17,1.11,0.66,1.29,0.18c0.79,0.23-0.29,0.58-0.52,0.2l0,0.38c0.07,0.09,1.37,0.42,1.55-0.21 c-0.68-0.09-0.25-0.25-0.52-0.95c-1.39,0.15-1.97-0.31-2.58-0.75c0.22-0.56,0.39-0.22,1.03-0.2c-0.34-0.57-0.27-0.97,0.25-1.34 c-0.69,0.25-1.22,0.32-0.76,0.97c-0.72-0.23-0.42-1.22-1.55-1.14c-0.28,0.36-0.64,0.68-0.76,1.16c0.39,0.63,0.3-0.64,1.02-0.39 c-0.32,0.62,0.83,0.14,0.52,0.76c-1.1-0.76-0.97,1.37-0.37,1.69c-0.59-0.17-0.79,0.43-1.41,1.01c0.02-0.59-0.88-1.71-0.53-2.49 c-0.15-0.43-0.4,0.23-0.77-0.19c0.05,0.75-1.22,0.02-1.03-0.96c-0.51,0-1.03,0-1.54,0.01c-0.04,0.48,0.4,0.6,0.78,0.77 c-0.26,0.26-0.69,0.38-0.77,0.77c-0.62,0.08-0.56-0.35-1.28-0.19c-0.33-1.09,1.32-0.97,1.27-2.31c-0.86,0.54-0.84,0.69-1.79,0.96 c1.41,0.86-0.92,0.38-0.77,1.35c-0.56,0.04-0.82-0.15-0.77-0.57c-0.41,0.39-1.29,0.45-2.31,0.39c-0.13-0.61,0.46-0.68,0.25-1.34 c-1.43,0.62-1.66-0.12-3.34,0.2c0.5,0.21,1.05,0.36,0.77,1.15c-1.44-0.27-2.29-0.35-3.6-0.37c0.41-0.71,1.87-0.35,2.31-0.59 c-0.09-0.64-1.48-0.3-2.31-0.38c0.02-0.49,1-0.28,1.03-0.77c-0.37-0.57-1,0.26-1.8,0.01c0.87,0.27,0.41,0.97-0.77,0.77 c-0.09,0.39,0.05,0.6,0.51,0.57c-0.28,0.78-1.23,1.17-2.05,0.58c-0.34,0.37,0.08,0.69-0.77,0.96c0.46,0.3,1.37,0.26,1.03,1.15 c-0.61-0.11-1.2-0.3-1.29,0.38c0.49,0.6,1.3-0.16,1.54-0.38c0.54,0.82-0.71,1.26,0.77,1.73c-0.22,0.28-0.38,0.61-1.03,0.58 c-0.11,0.46,0.47,0.42,0.26,0.96c0.77-0.28,1.57,0.67,1.54-0.2c0.79,0.04,0.79,0.69,1.29,0.95c-1.51,0.1-4.91,0.96-3.61-0.95 c-0.23,0.15-0.58,0.21-1.03,0.19c-0.13,0.8,0.59,0.97,0.78,1.53c4.64,0.42,9.01-0.09,12.1-0.23c-0.25,0.74,0.42,0.17,0.78,1.15 c-0.83-0.24-2.46-0.75-1.8,0.39c-1.4-0.68-2.68,0.02-3.87-0.18c-0.41,0.5-1.24,0.68-0.77,0.96c-0.58,0.36-1-0.45-2.06,0.01 c-0.41-0.64-1.03-0.89-0.26-1.53c-1.99-0.69-3.37,0.99-5.66,1.16c-0.19-1.12-0.66-1.49-2.06-2.69c-0.43,0-0.86,0-1.29,0 c-0.18,0.52,0.53,0.37,0.77,0.58c-0.01,0.23-1.46-0.05-1.8-0.19c0.51,0.9,1.65,1.33,3.35,1.35c-0.54,0.66-1.23,0.02-2.06,0.38 c-0.28-0.49-0.83-0.79-1.8-0.77c0.22,0.47,0.95,0.57,1.29,0.96c0.19,0.52-1.21-0.14-1.03,0.38c-0.66-0.05,0.36-0.33,0-0.77 c-1.83,1-5.79,0.41-7.47,1.53c-0.73-0.29-1.7-0.4-1.54-1.35c-1.69,0.04-2.91-0.27-4.38-0.4c-0.23,0.08-0.46,0.17-0.52,0.38 c0.07,0.4,0.69-0.27,1.03,0.2c-0.39,1.03-1.53,0.74-2.58,0.94c-0.23-0.62,0.84-0.26,1.04-0.57c-0.05-0.16-0.26-0.19-0.25-0.38 c-1.31-0.2-2.13-0.85-3.35-0.59c0,0.57,1.22,0.25,1.54,0.58c-0.03,0.27-0.05,0.54,0.25,0.58c-1.41,1.14-4.27,0-5.42,1.31 c-1.54-0.05-1.59-0.14-2.83-0.21c-0.1,0.33,0.2,0.36,0.51,0.39c-0.11,0.43-1.27,0.07-1.8,0.18c-0.07-0.31,0.25-0.33,0.26-0.57 c0.16-0.12-1.78-0.21-1.55,0.38c-0.71-0.13,0.73-1-0.77-0.77c0.17-0.19,0.59-0.19,0.52-0.57c0.6,0.07,0.96,0.31,1.8,0.2 c-0.32-0.89-0.11-1.03-1.02-1.35c0.08-0.26,0.64-0.16,1.03-0.19c-0.61-0.47-1.37-0.12-1.8-0.39c-0.04-0.54,0.73-0.48,1.04-0.76 c-0.06-0.67-1.14,0.34-1.03-0.2c-0.54,0.05,0.37,0.51-0.26,0.77c-0.56-0.16-0.21-0.99-0.76-1.16c0.03-0.49,0.87-0.38,1.55-0.37 c-1.11-0.89-1.88,0.14-3.08-0.79c0.22-0.14,1.49,0.01,1.55-0.75c0.21,0.48,1.17,0.41,2.06,0.4c0.5-0.27,0.5-0.91,1.29-0.95 c-0.44-0.62-0.68,0.49-1.54,0.18c0.73-0.54-0.15-0.86-0.77-0.96c0.44-0.68,0.43-1.06-0.25-1.34c0.21-0.41,1.07-0.74,1.55-0.37 c0.09,0.33-0.2,0.36-0.52,0.38c0.21,0.5,1.13-0.36,1.54,0.2c0.01,0.33-0.2,0.5-0.52,0.57c0.87,0.67,4.44-0.23,3.85,1.56 c1.82,0.84,4.39-1.45,5.4,0.6c0.64-0.3,0.11-1.34,0.01-1.72c-0.49-0.09-1.55,0.25-1.28-0.39c-0.8,0.1-0.68,0.9-1.55,0.95 c0.38-0.91-1.07-0.48-1.8-0.58l0.01-0.96c1.18-0.69,1.77,0.25,2.83-0.18c-1.31-0.59,0.69-0.33,0.26-1.34 c-0.78-0.14-0.75,0.33-1.54,0.18c0.26-0.58-0.57-0.34-1.03-0.39c0.11-0.37,0.56-0.48,0.52-0.96c-1.14-0.03-0.99,0.92-1.29,1.53 c-0.82-0.03-1.13-0.44-2.06-0.4c0.36-0.47,0.89-0.33,1.54-0.18c0.68,0.06-0.23-1.08,0.77-0.76c-0.15-0.45-1.58,0.02-1.8-0.39 c-0.35,0.19-0.34,0.64-0.77,0.76c-0.99-0.22-1.01-0.59-1.8-0.59c0.28-0.37,0.19-1.02,1.29-0.76c0.1-0.33-0.2-0.36-0.51-0.39 c0.04-0.42,0.65-0.41,1.28-0.38c-0.62,0.37-0.6,0.96,0.25,1.15c0.19-0.62,0.97-0.66,1.54-0.18c0.66-0.02,0.37-0.75,1.03-0.76 c-0.28-0.34-1.42,0.16-0.77-0.58c-0.89,0.06-2.28-0.02-1.54-0.58c0.25,0.01,0.2,0.24,0.26,0.38c0.36,0.08,0.41-0.75,0.15-0.93 c0.98,0.24,2.1-0.45,2.94-0.4c-0.06,0.34-0.44,0.43-1.03,0.38c0.08,0.45,0.5,0.8-0.01,1.15c0.44,0.01,0.67-0.14,0.77-0.38 c0.22-0.03,0.24,0.08,0.26,0.19c-0.05,0.16,0.1,0.18,0.26,0.19c0.01,0.49-0.19,0.23-0.52,0.19c0.03,0.55,0.32,0.91,1.28,0.77 c-0.21-0.59-0.72-0.46-0.25-1.15c0.25,0.33,0.8,0.57,1.28,0.2c-0.51-0.45-1.85-0.29-2.31-0.78c0.59-0.46,2.56,0.14,2.57-0.75 c-0.43,0-0.64-0.3-1.54-0.39c0.11-0.36,0.74-0.34,0.52-0.96c2.54,0.19,3.5-0.35,5.14-0.16c0.25-0.58-2.26-0.68-1.54-0.39 c-1.8-0.39-2.69-0.43-5.64-0.61c-0.04,0.34,0.31,0.41,0.25,0.77c-0.49-0.39-1.03-0.45-1.79-0.2c0-0.42-0.53-0.44-0.71-0.73 c-0.08,0.45-1.3,0.64-0.84,1.1c-0.08-0.1-1.99-0.3-2.05-0.59c-3.28,1.53-7.03-0.12-11.3,1.05c0.07,0.26,0.64,0.17,1.02,0.2 c-0.87,0.83-3.94-0.41-4.38,1.1c1.57-0.58,2.75,0.27,4.1,0.43c-1.13,0.56-0.51,1.31-0.02,2.11c0.49-0.43,1.36-0.15,2.32-0.55 c0.76-0.16-0.59-0.29-0.25-0.77c1.04-0.04,2.44,0.19,2.32-0.74c1.52,0.13,2.56-0.1,3.6-0.35c0.08-0.51-0.35-0.63-1.02-0.58 c-0.62-0.08,0.13,0.87-0.78,0.57l0.01-1.34c1.12,0.01,1.42-0.33,1.8,0.4c0.21-0.48,1.17-0.4,2.06-0.37 c-0.39,0.58,0.08,0.75-0.27,1.15c-0.93,0.18-0.21-0.86-1.02-0.77c-0.95,1.55,0.44,1.97,2.81,1.17c-0.46,0.49-0.73,1.12-1.3,1.53 c-0.38-0.1-0.64-0.29-1.02-0.39c-0.35,0.19-0.51,0.52-1.03,0.57c-0.13,0.48,1.28-0.53,1.03,0.39c-0.64,0.02-1.24,0.02-1.54-0.2 c0.35,0.38,0.24,1.1,0.5,1.54c-0.68-0.07-0.86-0.51-1.02-0.96c-1.62,0.56-1.92,0.33-3.6,0.54c-0.65,1.22-1.84,1.27-3.35,1.5 c-0.08,0.31,0.24,0.33,0.25,0.58c0.95-0.34,0.93-0.23,2.32-0.17c0.6-0.28,0.39-0.47,0.26-0.96c0.49-0.15,0.95-0.31,1.55-0.37 c0.06,0.8,0.7,1.18-0.02,2.11c0.31,0.59,0.98-0.27,1.28,0.21c-0.39,0.46-1.36,0.19-0.78,0.95c-0.43,0-0.86-0.01-1.29-0.01 c0.86,0.41-0.63,0.65-0.01,0.77c-0.97,0.5-1.89,0.08-2.83,0.35c0.14-0.68-1.28-0.51-1.27-1.55c-0.68,0-1.51-0.12-1.55,0.37 c-0.56,0.03-0.11-0.68-0.25-0.96c0.73-0.15,1.59-0.21,2.32-0.36c-0.64-0.8-0.23-0.93-1.79-1.17c1-0.24,1.34-0.45,3.09-0.35 c0.32-0.08,0.53-0.24,0.52-0.57c-1.26-0.08-5.43-0.16-7.72,0.88c-0.59-0.76,0.04-1.02,0.27-1.72c0.19-0.52-1.21,0.12-1.02-0.39 c-0.82,0.52-0.54,1.06-0.79,1.91c-0.59-0.07-0.99,0.02-1.29,0.18c0.56,0.83,1.05,0.45-0.27,1.15c0.95,0.34,2.97-0.18,3.35-0.92 c1.47,1.2,3.9-1.28,4.11,0.81c-2.39-0.01-2.59,1.96-3.38,2.84c0.03,0.42,1.09,0.09,1.55,0.21c-0.14,0.48-0.69,0.63-0.79,1.14 c-0.69-0.01-1.37-0.01-2.06-0.02c-0.07-0.78,0.54-0.1,1.03-0.18c-0.13-0.59-1.84-0.66-2.31-0.41c1.39,1.1,4.08,1.02,5.4,0.44 c-0.4-0.29-0.28-0.86,0.52-0.76c-0.16,0.18-0.61,0.7,0.25,0.58c0.76-0.15-0.15-0.62,0.01-0.96c0.87,0.06,1.47,0.32,2.57,0.22 c-1.71,0.71,0.57,1.57,1.79,1.17c-0.03-0.42-0.64-0.42-1.28-0.4c0.55-1.03,1.79,0.21,3.35-0.35c-1.34,0.66,0.46,1.01,1.02,0.97 c-0.23,0.8,0.31,1.05,0.76,1.35c-0.22,0.63-0.89-0.96-1.29-0.2c-0.64-0.3-1.17-0.67-1.27-1.36c-1.58-0.25-2.14,2.17-3.61,0.73 c-0.68-0.06-0.85,0.26-0.78,0.76c0.21-0.08,0.89,0.6,1.28,0.2c0.07,0.44-0.95,1.4-2.32,0.94c0.33-0.73,1.05,0.04,1.81-0.37 c-1.1-0.86-2.27-0.09-3.86-0.23c-0.52-0.34,1.94-0.06,1.81-0.75c-0.35-0.05-1.06-0.17-1.54-0.59c-0.55,0.67-1.68,0.83-1.56,1.52 c-1.83,0.13-2.77-0.14-4.13,0.15c0.55,0.17,0.59,0.71,0.5,1.35c-1.14-0.03-1.86,0.26-2.33,0.74c-0.11,0.46,1.18-0.09,0.77,0.58 c-0.69-0.01-1.47-0.09-1.81,0.17c0.16,0.58,0.55-0.18,1.03,0.01c0.52,0.23-1.45,0.61-1.54-0.02c0.21,0.5-1.87,0.55-1.05,1.52 c-2.07-0.04,0.65-1.33-1.53-1.17c1.53-0.88,2.51-2.13,4.41-1.86c0-0.13,0-0.26,0-0.38c-1.06-0.25-2.22,0.01-3.09-0.42 c0.12-0.23,0.34-0.39,0.78-0.37c-0.31-0.53-0.99-0.49-0.5-1.16c-0.44-0.05-0.67,0.32-0.77-0.01c-0.48,0.02-0.17,0.65-0.53,0.76 c-0.24-0.4-0.14-0.85-1.27-0.98c-0.25,0.7-0.3-0.15-1.55,0.17c1.48,0.47-1.18,0.64-0.02,1.34c-0.01-0.79,1.08-0.63,2.07-0.73 c-0.07,0.34-0.45,0.43-1.03,0.37c0.03,0.42,1.09,0.1,1.54,0.22c-0.5,0.45-0.34,1.58-0.02,1.73c-0.71,0.64-0.99-0.29-2.32,0.16 c-0.13,0.37,0.78,0.84-0.27,0.76c0.23,0.73,1.03,0.16,1.8,0.22c0.31,0.63-0.84,0.13-0.53,0.76c-0.93-0.66-3.71,0.02-4.11-1.02 c0.45,0.37,0.66-0.14,1.55,0.02c0,0.13,0,0.26-0.01,0.38c0.24-0.14,0.39-0.34,0.52-0.57c-0.7-0.58-1.71,0.23-2.83-0.04 c0.14-0.53,1.25-0.34,1.81-0.55c-0.5-0.22-1.2-0.5,0.01-0.57c-0.66-0.24-2.96-0.08-2.85,0.92c-0.97-0.16-1.24,0.22-2.06,0.16 c0.23-0.63,3.95-1.13,2.08-1.5c1.05,0.08,2.03-0.89,2.84-0.15c0.83-0.43,0.39-0.82,1.05-1.13c-0.74-0.84-3.12,0.18-4.12-0.25 c0.54-0.35,1.34-0.21,0.79-0.95c0.97-0.2,1.17,0.2,1.55-0.36c0.9,0.34-0.65,0.38-0.52,0.76c1.15-0.09,1.37-0.3,2.07-0.35 c-0.26-0.71-0.14-0.8-0.76-0.97c0.08-0.26,0.65-0.15,1.03-0.18c-0.89-0.37-2.35,0.07-2.56-0.61c1.46,0.28,4.14-0.04,5.15-0.11 c0.31-0.5-1.23-0.51,0.01-0.58c-0.08-0.26-0.64-0.17-1.03-0.21c0.32-0.86,1.48-1.06,1.83-1.89c1.09,0.75,0.67-0.25,1.29-0.17 c0.1,0.26,0.01,0.81-0.79,0.95c0.82,0.62,2.24-0.98,2.07-1.12c0.41-0.16,2.16-1.21,2.06,0.02c0.87-0.43,0.62-1.72,1.57-2.09 c-0.33-0.54-0.54,0.6-1.29,0.37c-0.15-0.4-0.48-0.66-1.02-0.78c0.22-0.18,0.63-0.12,1.54-0.18c0.32-0.62-0.83-0.15-0.51-0.77 c1.23,0.1,2.12-0.05,2.32-0.74c1.47,0.07,2.18,0.66,4.11,0.23c-0.05-0.16-0.26-0.19-0.25-0.39c-1.05-0.73-2.66,0.36-3.59-0.61 c-0.84,0.15-2.29,1.12-2.31-0.22l1.54,0.02c-0.05-0.89-1.41-0.09-2.05-0.21c0.32,0.81,0.39,0.81,0.49,1.54 c-0.52-0.25-0.45-0.93-1.53-0.78c-0.21,0.02-0.79,0.63-0.26,0.57c-0.34,0.48-1.24-0.22-1.02-0.78c-1.2-0.38-1.87,0.01-2.3-0.8 c1.67-0.43,3.01,0.5,3.34-0.72c-0.94-0.07-1.77,0.52-2.31,0.16c-0.22-0.62,0.85-0.25,0.78-0.76c-0.19-0.43-0.98,0.25-1.03,0.56 c-0.24-1.55-4.88,0.03-6.66-1.25c-0.69-0.14-0.5,0.39-0.78,0.56c-0.45-0.43-1.43-0.58-1.54,0.17c-0.97-0.27-1.72-0.15-3.33-0.24 c0,0,0.28-0.21,0.68-0.4c0.4-0.19,0.91-0.38,1.39-0.34C4.01,17.37,1.04,19.34,0,18.55C1.03,18.4,2.44,18,4.37,18.04 c0.23-0.61-0.38-0.61-0.76-0.78c0.9-0.31,2.51,0.36,2.58-0.92c1.08,0.26-0.04,0.79-0.02,1.34c1.51-1.28,2.25,0.59,3.84,0.25 c0.11-0.46-1.17,0.09-0.76-0.59c1-0.39,2.49-0.41,2.84-1.3c1.4-0.13,1.14,0.95,2.29,0.99c0.3-0.54,0.33-1.29,1.81-0.93 c-0.44-1.07,0.36-0.73,0.02-1.73c-0.1-0.38-0.74,0.3-0.51-0.58c-0.95-0.22-0.73,0.47-1.54,0.36c-0.42-0.39-0.85-0.78-1.78-0.79 c2.45-0.73,4.53,0.34,6.91,0.29c-0.62,0.13-1.64,0.6-2.56-0.03c-0.57,0.01-0.12,0.81-0.27,1.15c0.18,0.18,0.46,0.3,0.76,0.4 c-0.06,0.27-0.76,0.05-0.77,0.37c-0.21,0.42,1.27,0.7-0.01,0.77c0.13,0.54,1.23,0.37,1.79,0.6c1.43-1.09,3.28,0.26,5.13-0.71 c-0.11,0.66,0.76,0.58,1.02,0.97c-0.16,0.65-1.43,0.46-1.81,0.94c0.37,0.83,1.61-0.07,2.82,0.22c0.04-0.34-0.31-0.41-0.25-0.77 c0.7,0.06,0.27,1.24,2.04,0.98c-0.68-0.61-1.35-0.91-0.5-1.73c-0.3-0.48-1.88-0.02-1.79-0.79c0.56-0.01,1.65,0.54,1.79,0.21 c-0.09,2.22,3.18,2.11,5.36,2.17c0.21-0.03,0.26-0.19,0.52-0.19c0.26-0.89-1.53-0.28-1.27-1.16c2.86,0.32,4.81-1.18,6.67,0.25 c0.93-0.17,0.16-0.57,0.27-1.15c-2.27,0.21-2.2-0.15-4.36-0.04c0.18-0.5,1.17-0.39,1.29-0.95c-0.21-0.32-3.57,0.62-3.07-0.8 c2.1,0.37,3.6,0.47,5.9-0.14c-0.49-0.61-1.21,0.04-1.79-0.59c-0.56,0.65-0.73,0.7-2.06,0.55c0.08-0.39,0.7-0.37,0.78-0.76 c-0.92-0.13-0.76,0.58-1.54,0.56c0.06-0.61-1.12-0.32-1.02-0.97c-0.63,0.01-0.79,0.35-1.28-0.01c-0.56-0.04-0.12,0.68-0.27,0.96 c0.07,0.4,0.69-0.27,1.03,0.2c-0.28,0.55-0.79,0.63-1.54,0.37c0.13,0.16,0.26,0.31,0.25,0.58c0.72,0.17,0.67-0.26,1.29-0.18 c-0.03,0.62-1.17,0.4-1.8,0.56c0.05-0.48-0.57-0.47-0.76-0.78c0.09-0.45,1.12-0.17,1.29-0.56c-0.32-0.1-1.21-0.73-1.28-0.4 c-0.76-0.13,0.25-0.41,0.01-0.77c0.62,0.74,2.43-0.59,1.03-0.76c0.04-0.42,1.08-0.07,1.54-0.18c-0.08,0.39-0.7,0.37-0.78,0.76 l0.77,0.01c0.72-0.18-0.37-0.51,0.26-0.76c0.76,0.59,2.07,0.76,3.06,1.18c0.44-0.27,0.8-1.1,1.54-0.56c0.85-0.3-0.03-0.72,0.52-1.15 c0.31,0.08,0.52,0.25,0.51,0.58c0.46-0.17,0.33-0.78,1.29-0.57c-0.23-0.7-0.76-0.12-1.54-0.2c0.62-1.5-2.94-0.56-3.07-0.6 c-0.76-0.14,0.25-0.41,0.01-0.77c1.52,0.07,3.04,0.13,3.33-0.74c1.39,0.84,1.97-0.35,3.84-0.17c-0.94,0.8,2.96,0.4,3.58,0.6 c0.19,1.41,2.46,0.88,3.58,0.79c0.25,1.57,1.99,0.28,3.07,0.97c0.36-0.19-0.1-0.32,0.52-0.57c1.09,0.71,3.36,0.48,5.12,0.2 c-1.45-0.4-2.44,0.2-3.84-0.2c0.13-0.6,1.63-0.18,1.54-0.95c0.62-0.08,0.56,0.35,1.28,0.19c-0.04,0.22-0.47,0.16-0.76,0.19 c3.1,0.15,5.31,0.23,8.45-0.18c0.04-0.42-0.91-0.09-1.28-0.19c-0.97-0.38,1.32,0.12,0.77-0.58c0.59,0.53,0.85,0.12,2.05,0.19 c0.04,0.6-1.43,0.08-1.02,0.96c-0.68,0-1.46-0.07-1.79,0.19c0.04,0.35,0.87,0.12,1.02,0.38c-0.01,0.56-1.45,0.45-1.79,0.19 c0.07-0.21,0.51-0.13,0.51-0.38c-0.51-0.68-1.17-0.06-2.3-0.19c0.37,0.87,1.67,1.05,2.3,1.73c0.92-0.08,1.37-0.51,2.56-0.38 c0.29-0.24,0.41-1.06,1.02-1.15c0.21,0.54-0.36,0.5-0.26,0.96c0.63,0.58,1.67-0.14,2.56,0c-0.51-0.68-1.17-0.06-2.31-0.19 c1.17-0.27,1.35-0.49,2.3-1.15c-0.17-0.58-0.55,0.18-1.02,0c-0.29-0.51,1.59-0.65,0.25-0.77C68,8.98,68.62,9.7,69.53,9.54 c-0.07,0.4-1.12,0.05-1.28,0.38c1.28-0.26,2.24,0.95,2.82,0.58c0.69,0.29-0.41,0.83-0.51,1.15c2.22,1.14,4.12,0.23,6.92-0.02 c-1.02-0.28-0.47-0.41-0.26-1.15c1.03,0.07,0.63,0.12,1.54,0.38c-0.17-1.14,2.27,0.33,3.58-0.59c0.87,1.16,2.02,0.78,3.08,1.14 c-0.04-0.61-0.58-0.84-1.54-0.76c-0.05-0.16,0.1-0.18,0.26-0.19c0.05-0.16-0.1-0.18-0.26-0.19c0.19-0.17,0.82-0.17,1.79-0.2 c-0.25-0.26-0.69-0.38-1.03-0.57c0.43-0.44,1.44,0.31,2.3,0.18c-0.99,0.26-0.72,0.6-0.25,1.15c-0.71,0.04-0.46,0.78-1.27,1.16 c0.22-0.04,0.24,0.07,0.26,0.19c1.21-1.03,2.38-0.94,4.35-0.98c-0.11,0.24-0.33,0.4-0.77,0.39c1.65,0.17,6.31,0.37,7.68-0.64 c0.65-0.01,0.31,0.14,0.26,0.38c0.43,0,0.85-0.01,1.28-0.01c-0.12-0.17-0.23-0.34-0.51-0.38c0.52,0.14,0.88-0.16,2.3-0.21 c0.83,0.21-0.68,0.22-1.02,0.2c0.51,0.58,1.98,0.42,2.83,0.74c2.04-1.08,4.31-1.32,6.6-1.35c2.29-0.04,4.59,0.13,6.7-0.15 c0.07-0.51-0.99-0.14-0.78-0.76c-1.18,0.51-1.77,0.3-3.07,0.23c0.02-0.36,0.85-0.15,0.76-0.59c-0.37-0.29-1.34,0.06-2.05-0.36 c0.53-1.09,1.12,0,2.3-0.03c2.88-1.24,6.49-0.19,9.46-0.7c-0.82,0.39-0.23,0.42,0.69,0.38c-0.4,0.22-1.22,0.45-1.96,0.22 c-0.18,0.17-0.23,0.77-0.49,1.35c1.65-0.08,4.74,0.86,5.89-0.27c0.38,0.08-0.1,0.25,0.01,0.58c0.66-0.28,1.53-0.41,2.29-0.62 c-0.37-0.72-0.84-0.48-1.55-0.93c-0.13-0.67,1.24-0.24,1.27-0.79c-0.55-0.56-1.34,0.28-2.3,0.04c0.62,0.37,0.26,0.3,0.52,0.95 c-0.67-0.45-1.03-0.56-1.8-0.55c0.13-0.29,0.37-0.49,0.5-0.77c4.5-0.4,10.32-1.08,14.32-0.26c0.45-0.12,1.06-0.12,1.27-0.41 c0.46,0.13,0.04,0.35,0.01,0.58c2.84,0.9,8.71-0.69,12.04,0.31c-0.06,0.21-0.5,0.14-0.5,0.4c2.21-0.02,2.46,1.79,4.64,1.23 c-0.1-0.51-0.69-0.63-1.3-0.74c0.21-0.98,1.87-0.93,3.04-1.22c0.89,0.44-0.05,1.18,0.56,1.91c0.56-0.04,0.54-0.5,0.49-0.97 c0.61,0.51,1.45-0.37,2.05,0.14c0.19-0.84,1.32-0.29,2.02-1.01c0.28,0.43,1.01,0.5,1.3,0.92c0.45-0.18,0.73-0.63,1.27-0.23 l-0.01-0.38c-0.08-0.26-0.64-0.14-1.03-0.16c0.2-0.18,0.26-0.44,0.24-0.77c1.08,0.37,1.06,1.09,2.05,0.13l0.03,1.15 c0.26-0.13,0.25-0.45,0.76-0.4c0.2,0.52-0.5,0.4-0.49,0.78c0.43,0.12,1.4,0.21,2.05-0.06c0.03-0.42-0.91-0.06-1.29-0.16 c-0.12-0.36,0.32-1.17-0.54-0.94c0.64-0.6,2.98-0.83,3.82-0.68c0.04-0.22-0.06-0.34-0.26-0.38c1.93-0.43,6.91,0.36,9.46-0.27 c-0.04,0.22,0.06,0.34,0.27,0.37c-0.04,0.23-0.46,0.18-0.76,0.22c0.09,1.14,1.34,0.27,1.82,0.9c0.64,0.01,0.79-0.32,1-0.61 c0.81,0.21,1.38,0.73,2.31,0.31c0.35,0.46-0.72,0.82,0.03,0.96c-0.52,0.47-0.83-0.89-2.06-0.51c-0.51,0.53-0.45,0.58-1.52,0.43 c0.31,1.07,1.84,0.56,2.83,0.29c0.15,0.42-0.48,0.29-0.49,0.59c0.5-0.1,2.41-0.32,2.8-0.67c0.35,0.18,0.52,0.5,1.04,0.54 c0.64-0.28,0.12-1.26-0.8-0.93c0.03-0.23,0.46-0.18,0.76-0.22c0.49-0.1,0.18-0.75,1-0.61c0.91,0.66-0.56,0.71-0.47,1.36 c0.51,0.35,0.87-1,2.02-0.83c-0.47,0.58-0.6,0.83,0.79,0.74c0.79-0.27,0.12-0.4,0.48-0.98c1.68-0.01,2.88-0.36,4.34-0.53 c-0.07-0.54-0.48-0.8-1.31-0.72c-0.3-0.2,2.03-0.69,2.3-0.08c5.61-0.97,11.92-0.19,16.33-1.57c1.42,0.61,3.79-0.31,5.6-0.8 c-1.95-0.89-4.99,1.41-4.87-0.19c-1.24-0.05-4.37,0.39-4.35-0.03c4.57,0.17,7.48-0.78,10.25,0.17c0.56,0.01,0.8-0.19,0.74-0.61 c2.44,0.29,6.91-0.17,8.95-0.19c0.03,0.58-0.88,0.52-1.51,0.64c2.17,0.4,8.56-0.04,11.26-0.31c0.79,0.15-0.27,0.52-0.22,0.78 c1.29,0.31,2.71-0.88,4.31-0.97l0.03,0.58c2.12-0.26,3.91-0.1,6.37-0.69c-0.28,0.8-2.68,0.16-2.76,1.09 c1.37,0.22,4.23-0.59,5.91,0.29c1.87-0.2,1.79-0.68,3.55-0.76c0.33,0.66,0.83,1.18,2.1,1.04c0.06,1.13-1.19,0.28-1.49,1.04 c1.22-0.01,0.84-0.02,2.32,0.26c-0.18-0.19-0.6-0.17-0.54-0.55c2.12-0.23,3.06,0.24,5.09-0.65c0.09-0.81-1.2-0.46-1.58-0.88 c-0.3,0.05-0.19,0.36-0.23,0.59c-0.79-0.21-1.29-0.78-2.32-0.26c0.2-1.22,2.69-0.91,3.76-1.54c1.03,0.24,1.76,0.72,3.1,0.41 c0.34,0.38,0.78,0.68,1.33,0.89c0.69,0.1,0.47-0.42,0.73-0.61c0.77,0.08-0.22,0.42,0.04,0.77c1.1-0.6,1.02-0.06,2.03-0.3 c-0.01-0.33-0.22-0.48-0.54-0.55c1.35-0.12,2.74,0.22,4.39,0.52c0.21-0.05,0.25-0.21,0.5-0.22c0.02-0.42-0.24-0.6-0.8-0.53 c0.96-0.21,3.27,0.18,4.14,0.72c0.57-0.06-0.36-0.47-0.05-0.96c0.53,0.29,0.33-0.04,1.02-0.06c0.08,0.54,0.86,0.48,1.08,0.9 c0.36-0.13,0.61-0.34,0.73-0.62c0.35,0.17,0.79,0.27,1.06,0.52c1.11-1.34,3.97-0.32,6.09-1.12C289.8,2.71,288.39,3.15,288.28,3.52z M12.08,17.2c0.34,0.01,0.68,0.01,1.02,0.02c0.08-0.5-0.08-0.83-0.75-0.78C12.27,16.7,11.98,16.8,12.08,17.2z M10.01,18.51 c-0.43-0.01-0.85-0.01-1.28-0.02l-0.01,0.38C9.21,18.8,10.27,19.16,10.01,18.51z M12.59,17.78c0.3-0.02,0.73,0.05,0.77-0.18 c-0.45,0.1-1.5-0.25-1.54,0.17c0.83,0.07,0.59,1.27-0.02,1.34C13.05,19.27,12.87,18.31,12.59,17.78z M14.37,18.77 c-1.15,0,0.54-0.98-0.76-0.97c0.05,0.57-0.96,0.64-0.28,1.15c-0.2,0.04-0.5,0-0.51,0.19C13.56,19.18,14.13,19.1,14.37,18.77z M22.05,20.02c0.04,0.42-0.91,0.08-1.29,0.18C20.74,21.28,22.74,20.39,22.05,20.02z M18.31,32.07c-0.36-0.3-1.34-0.21-1.29,0.37 C17.65,32.47,18.08,32.35,18.31,32.07z M19.36,30.54c0.04,0.32-1.59,0.3-1.55-0.02c0.29-0.03,0.4-0.21,0.52-0.38 c-1.69,0.15-0.93-1.48-2.3-1.57c-0.06,0.15-0.22,0.22-0.52,0.18l-0.01,0.77c0.39,0.28,1.2,0.27,1.54,0.6 c-0.57,0.2-0.71,0.75-1.3,0.94C16.46,31.03,19.63,31.42,19.36,30.54z M20.14,29.79c-0.31-0.71-1.61-1.1-0.24-1.54 c-0.67-0.06-1.11,0.06-1.04,0.57C19.47,29.01,19.28,29.78,20.14,29.79z M21.65,32.49c0.89,0.38,1.42,0.45,2.06-0.17 C23.15,32.19,21.8,31.81,21.65,32.49z M21.94,29.61c0.7-0.28,1.75,0.3,2.07-0.55c-1.03,0.16-1.4,0.23-1.28-0.78 c-0.25,0-0.51-0.01-0.77-0.01C21.59,28.52,21.58,29.35,21.94,29.61z M19.13,27.86c0.71-0.3,1.79-0.44,2.58-0.16l0.01-0.77 C20.99,27.21,18.51,27.18,19.13,27.86z M44.93,14.27c0.38,0.29,1.32,0.02,1.28-0.57C45.41,13.61,45.17,13.94,44.93,14.27z M40.6,10.8c0.72-0.03,1.75,0.17,1.79-0.37C41.81,10.56,40.4,10.06,40.6,10.8z M41.61,13.1c-0.68-0.19-2.19-0.38-2.82-0.02 C38.21,13.34,41.36,13.46,41.61,13.1z M35.7,15.37c1.39-0.13,2.07,0.25,3.33,0.21C39.23,14.33,36.15,14.85,35.7,15.37z M43.13,15.03 c-0.32-0.08-0.52-0.25-0.51-0.58c-1.18-0.01-2.05,0.19-2.82-0.02c0.19-0.87,1.47,0.22,1.54-0.57c-0.31-0.1-2.24-0.13-2.82,0.17 c2.13,0.07,0.2,1.39,1.27,1.73c0.4-0.05,0.18-0.42,0-0.58c0.49,0.05,0.57-0.21,1.03-0.19c0.37,0.17,0.81,0.29,0.77,0.77 c-1.39-0.57-1.13,1.17-2.06,1.52c1.03-0.18,1.51-0.79,2.57-0.95C41.51,15.59,42.73,15.05,43.13,15.03z M42.62,15.99 c0.05,0.36-0.29,0.42-0.26,0.76C43.54,16.99,43.59,16,42.62,15.99z M44.15,16.95c-0.95,0.01-0.73,0.21-1.54-0.01 c-0.1,0.58,0.83,0.4,1.28,0.58C43.88,17.26,44.01,17.11,44.15,16.95z M47.49,15.82c-0.65-1.02-1.78-0.93-3.58-0.79 c0.1,0.74,0.28,0.68-0.26,1.15c0.67-0.11,0.92,0.08,0.77,0.58c1.3-0.15,0.43-1.19,1.29-1.33C46.49,15.41,46.92,15.67,47.49,15.82z M46.68,23.87c-0.64-0.02-0.8-0.36-1.29-0.01C45.14,24.64,46.92,24.65,46.68,23.87z M39.95,30.55c0.79-0.01,0.61,0.69,1.54,0.58 C41.13,30.8,40.36,29.69,39.95,30.55z M41.25,27.87c-0.62,0.11-1.86-0.25-2.06,0.18C39.91,28.12,41.18,28.96,41.25,27.87z M39.44,29.59c0.96,0.08,1.51-0.15,1.55-0.76c-0.36,0.01-0.56-0.1-0.77-0.2C40.47,29.33,38.97,28.71,39.44,29.59z M40.45,32.09 c-0.02-0.33,0.06-0.6,0.26-0.77c-0.51,0-1.03-0.01-1.54-0.01C39.21,31.85,39.61,32.13,40.45,32.09z M43.28,33.45 c-1.85,0.13-1.39-0.48-2.31-0.78c0.02-0.12,0.04-0.23,0.26-0.19c0,0.19,0.45,0.24,0.51,0c-0.61-0.12-1.17-0.28-2.06-0.2 c-0.06,0.36,0.29,0.42,0.25,0.77c1.05-0.24,1.29,0.4,0.77,0.77c1.04,0.19,1.61,0.59,2.06-0.18c-0.3,0.39,0.4,0.92,0.51,0.39 C42.87,33.97,43.1,33.6,43.28,33.45z M73.12,13.76c-0.16,0.01-0.3,0.03-0.26,0.19c1.57,0.34,1.17-0.79,2.3-0.78 c1.09-0.05,0.96,0.81,2.05,0.76c-0.26-0.96-1.63-1.08-3.08-1.14c0.2,1.08-1,0.39-1.28,0.77C73.02,13.58,73.17,13.6,73.12,13.76z M68.26,14.91c0.23,0.26,1.82,0.85,1.54-0.19C68.89,14.79,68.47,14.73,68.26,14.91z M66.72,14.14c0.21,0.59,0.72,0.46,0.26,1.15 c0.75,0.05,0.95,0.27,1.28,0C67.87,14.84,67.93,13.38,66.72,14.14z M64.15,18.55c2.6,0.8,3.5-0.15,5.13-1.53 c-0.93-0.06-1.67,0.03-2.31,0.19c-0.33,0.48,0.75,0.8,0,0.96c-0.67-0.4-0.22-0.75-0.51-1.15c-1.27,0.1-1.37,0.08-2.31,0.19 C64.49,17.81,64.08,17.76,64.15,18.55z M60.82,14.33c0.74,0.25,0.28,0.81,1.53,0.96C62.48,14.61,61.35,13.89,60.82,14.33z M60.56,19.32c1.45,0.24,1.12-1.09,0.26-1.15C60.52,18.39,60.53,18.84,60.56,19.32z M61.58,19.89c-0.34,0-0.68,0-1.03,0 C60.35,20.63,61.78,20.63,61.58,19.89z M55.19,12.22c1.56-0.25,2.38,1.15,3.33,0.19c-0.3-0.03-0.73,0.03-0.77-0.19 c0.52-0.28,1.8-0.37,0.77-0.77c0.43-0.25,1.63,0.07,1.54-0.57c-0.27-0.44-1.61-0.07-2.3-0.19c-0.22,0.68,0.74,1.15-0.26,1.34 C57.44,11.62,55.71,11.77,55.19,12.22z M52.88,13.74c-0.06,0.61,1.12,0.32,1.02,0.96c1.74-0.63,4.01,0.26,5.89,0.58 c0.05-0.79-1.14-0.36-0.51-1.15c-0.64-0.25-1.07,0.56-1.28,0c0-0.25,0.45-0.17,0.51-0.38c-0.6-0.25-0.48,0.02-1.28-0.19 c-0.05,0.29,0.09,0.71-0.26,0.77c-0.2-0.04-0.51-0.01-0.51-0.19c0.01-0.25,0.45-0.17,0.51-0.38c-1.05-0.25-1.84-0.04-2.31,0.57 C54.31,13.96,53.43,13.97,52.88,13.74z M58.25,18.74c0.14,0.55,1.2,0.78,1.28,0c-0.93,0.17-1.71-0.75-2.31-0.19 c0.16,0.01,0.3,0.03,0.26,0.19l-0.51,0c-0.04,0.48,0.39,0.6,0.77,0.77C57.66,19.07,57.8,18.79,58.25,18.74z M54.91,21.04 c1-0.14,2.51,0.14,2.05-0.57C56.57,20.87,55.19,20.54,54.91,21.04z M56.2,18.93c0.31-0.87-0.6-0.83-1.28-0.96 c-0.2,0.69-1.17,0.78-1.8,1.14C54.78,19.56,55.22,18.71,56.2,18.93z M52.33,24.48c0.66-0.59,2.9-0.13,3.35-1.33 c-0.48-0.03-0.86-0.13-1.03-0.38c0.43-0.38-0.02-0.24,0-0.77c0.6-0.01,2.75,0.16,1.8-0.38c-0.71,0.45-2.03-0.26-3.34-0.01 c-0.26,1.2,0.42,0.58,0.77,1.15c-0.39,0.45-0.08,0.94-1.03,0.57C53.12,24.05,52.21,23.88,52.33,24.48z M55.16,22.38l0,0.38 c0.7-0.02,0.52,0.32,1.03,0l0-0.38C55.68,22.06,55.86,22.4,55.16,22.38z M52.37,13.55c-0.51,0-1.02-0.01-1.54-0.01 c0,0.13,0,0.26,0,0.38C51.36,13.81,52.61,14.24,52.37,13.55z M49.52,19.86c0.24,0.2,0.95,0.06,0.77,0.58 c0.64,0.04,0.8-0.29,1.03-0.57C51.1,19.69,49.68,19.45,49.52,19.86z M50.02,23.89c-1.01,0.04-2.18,0.39-2.83-0.4 C47.46,24.79,49.61,24.84,50.02,23.89z M61.57,33.32c-0.38,0-1.05-0.71-1.29-0.19C60.76,33.3,61.18,34.16,61.57,33.32z M70.32,30.07 c-1.12-0.68-2.32-1.02-3.86-0.77c-0.32-1.83-2.18-1.52-3.35-1.15c-0.41-0.95,0.38-1.63,1.29-2.11c-0.7-0.18,0.69-0.36,0.26-0.96 c-1.28,0.25-0.45-0.01-0.26-0.58c-0.49-0.36-0.64-0.02-1.29,0c0.1-0.54-0.98-1.17-0.25-1.54c0.17,0,0.34,0,0.52,0 c-0.08,0.45-0.5,0.79,0,1.15c0.88-0.59,0.99,0,2.05,0.19c-0.43-0.71,0.15-0.3,0.26-0.96c-0.88,0.08-1.69,0.34-2.05-0.19 c0.71-0.24,0.55-1.12,1.29-1.34c0.01,0.12,0.04,0.23,0.26,0.19c-0.03,0.3-0.66,0.15-0.51,0.57c1.2,0.13,1.13-0.69,1.8-0.96 c-0.4-0.02-0.89,0.02-0.77-0.39c-0.96-0.2-0.73,0.48-1.54,0.38c0-0.19,0-0.38,0-0.58c-0.43,0-0.86,0-1.28,0 c-0.61,1.14-2.1,1.04-2.83,1.72c-0.21-0.68,1.59-0.84,0.77-1.34c-1.02,0.29,0.5-0.89-0.51-0.96c-0.62,0.69-1.39,1.26-2.31,1.72 c0.03-0.23,0.46-0.43,0-0.57c-1.15,0.29-1.23,1.38-2.06,1.92c0.7-0.05,1.21-0.25,1.54-0.57c0,0.19,0.21,0.23,0.25,0.38 c-0.66,0.25-0.49,0.63-0.26,1.15c-0.53-0.11-0.83-0.4-1.28-0.58c0.04,0.54-0.97,0.45-0.26,0.96c-0.66,0.33-0.9-0.22-1.29,0.19 c0.24,0.2,0.95,0.06,0.77,0.58c-0.29-0.16-0.69-0.25-1.29-0.19c0.01,0.27-0.12,0.42-0.26,0.58c0.37,0.11,1.33-0.22,1.28,0.19 c-0.47,0.84-2.22,1.06-1.55,1.72c-0.58-0.4-0.98-0.93-2.31-0.78c-0.07,0.78-1.16,0.8-1.81,1.14c1.24,0.13,2.91,0.8,4.12,0.22 c-0.97,0.85,1.35,0.56,1.8,0.96c-0.71,0.3-1.3,0.69-2.06,0.95c-0.89-0.49-3.24-0.92-3.86-0.98c0.29,0.04,0.4,0.22,0.51,0.39 c-1.24,0.77-3.53-0.41-4.38,0.36c0.16,0.33,1.22-0.01,1.29,0.39c-0.38,0.03-0.95-0.08-1.03,0.18c0.3,0.03,0.28,0.31,0.25,0.58 c1.13-0.4,1.61,0.68,2.05,1.36c0.91-0.61,0.79,0.15,2.32,0.01c0.45-0.11-0.02-0.91,0.52-0.96c0.26,0,0.31-0.16,0.52-0.19 c-0.04,0.47-0.04,0.92,0.25,1.15l4.38,0.02c-0.34-1.02-2.1-0.68-2.83-0.97c0.82,0.02,0.42-0.48,1.55-0.57 c0.32-0.62-0.83-0.15-0.51-0.77c3.03-0.22,3.31-0.08,4.89,1.35c-0.53,0.11-0.98,0.29-0.78,0.96c1.62-0.31,2.65-0.25,3.6-0.77 c-0.46-0.11-1.07-0.1-1.28-0.39c0.8,0.06-0.65-0.55,0.26-0.57c0.16,0.78,1.97-0.06,1.29-0.38c-0.71,0.27-2.92,0.01-3.34-0.58 c0.64,0.02,2.7,0.65,2.57,0c-0.34-0.64-2.9,0.36-2.83-0.58c-0.94,0.83-1.61-0.49-2.06,0.58c0.11-0.46-0.47-0.42-0.26-0.96 c0.63-0.43,1.84-0.42,3.09-0.38c0.19-0.59-0.7-0.37-0.51-0.96c0.39,0.03,0.95-0.07,1.03,0.19c-0.08,0.26-0.36,0.37-0.26,0.77 c3.02,0.17,5.96-0.03,4.37,2.31c1.1-0.01,1.8-0.32,3.09-0.19c0.04-0.87,1.63-0.57,2.57-0.76c0.03,0.21-0.38,0.3,0,0.38 c0.01-0.12,0.04-0.23,0.26-0.19C70.22,30.25,70.37,30.23,70.32,30.07z M69.03,28.15c-0.18,0.41-2.47-0.72-2.57,0.38 C67.17,27.94,68.75,29.12,69.03,28.15z M70.57,24.5c-0.35,0.29-1.33,0.54-1.8,0.19c-0.07,1.26-1.71,1.13-1.54,2.11 c-0.3-0.03-0.28-0.3-0.26-0.57l-1.29,0c0.49,0.59,0.38,1.06,0.52,1.54c0.86-0.33,1.14,0.1,2.32,0c0.31-0.62-0.83-0.15-0.52-0.77 c0.77-0.17,1.57,0.6,1.8,0.19c-1.31-0.57,0.15-0.88-0.77-1.73c0.61-0.47,0.48,0.29,1.29,0.19C69.78,24.91,71.39,24.83,70.57,24.5z M71.08,17.98l0-0.77c-0.91-0.1-1.32,0.16-1.54,0.57c0.52,0.38,0.5-0.08,1.03-0.19C70.62,17.81,70.85,17.9,71.08,17.98z M72.36,17.98c-0.53-0.05-0.06-0.85-0.77-0.77c-0.29,0.23-0.29,0.68-0.26,1.15C71.81,18.34,72.19,18.24,72.36,17.98z M73.38,14.91 c-0.28-0.79-0.99-0.4-1.54-0.19c0-0.19-0.21-0.23-0.26-0.38c0.59,0.05,0.96-0.05,1.02-0.38c-1.31,0.26-1.08,0.37-2.31,0 c0.08,0.44-0.04,0.74-0.25,0.96C71.48,14.42,71.93,15.28,73.38,14.91z M76.73,21.61c-1.41-0.16-0.29-0.97-2.31-1.14 c-0.52,0.06-0.5,0.52-1.03,0.58c0.03,0.48,0.48,0.59,0,0.96c1.23,0.09,0.56-1.24,1.79-1.16c0.04,0.47,0.04,0.92-0.25,1.15 C75.66,21.28,76.07,22.51,76.73,21.61z M77.51,22.76c-0.49-0.04-0.57,0.22-1.03,0.2C76.33,23.8,77.87,23.61,77.51,22.76z M81.57,11.42c0.38,0.3,1.46,0.28,1.28-0.39C82.39,11.14,81.79,11.14,81.57,11.42z M81.61,20.63c-0.27-0.22-1.18-0.07-1.54,0.2 c0.86-0.2,0.4,0.6,0.52,0.96c-0.37-0.04-0.43-0.31-0.77-0.38c0.18,0.52-0.53,0.37-0.77,0.58c0.64,0.79-0.46,0.77-0.25,1.73 c0.43,0,0.86,0,1.29-0.01c0.41-0.76-1.11-0.06-1.03-0.57c0.03-0.55,1.07-0.35,1.8-0.39C80.56,21.64,81.76,21.64,81.61,20.63z M81.87,20.82c0.73-0.2,1.07-0.2,1.8-0.01c-0.41-0.59-0.22-0.74-0.52-1.15c-0.21,0.57-0.65-0.25-1.28,0.01 C82.15,20.28,81.89,20.11,81.87,20.82z M84.18,21.96c-1.08,0.29-1.08,0.38-2.05,0.01c0.19,0.57,0.08,1.35,0.78,1.53 c0.37-0.86-0.19-0.97,1.28-0.58C84.67,22.56,84.21,22.44,84.18,21.96z M85.72,21.38c-0.06,0.3-0.98,0.9-0.25,1.15 C85.41,22.15,86.61,21.75,85.72,21.38z M86.22,19.46c-0.18,0.69-0.89,1-1.02,1.73C86.08,21.09,86.94,19.55,86.22,19.46z M96.94,12.29c-0.95,0.45-3.22-0.71-3.58,0.42C94.78,12.74,96.41,13.3,96.94,12.29z M108.46,11.23c0.76,0.27,3.11,0.31,3.84-0.05 C110.78,11.07,109.38,11.05,108.46,11.23z M107.19,12.39c0.77-0.07,1.99,0.19,2.04-0.4c-1.31,0.36-1.03-0.5-1.8-0.56 C107.52,11.87,107.4,12.17,107.19,12.39z M100.2,32.98c-0.53,0.52-1.23-0.47-2.06-0.36c0.48,0.84-0.41,0.79,0.01,1.34 C99.4,34.16,100.91,33.57,100.2,32.98z M102.75,29.31c-0.89,0.11-2.44-0.26-2.57,0.41c0.26-0.02,0.53,0.82,0.78,0.19 c-0.23-0.69,0.27,0.78,1.29,0.37C102.01,29.67,102.46,29.55,102.75,29.31z M103.09,12.04c0.38,0.03,0.94-0.08,1.03,0.18 c0.18,0.52-1.21-0.13-1.02,0.39c0.95-0.21,0.51,0.64,1.03,0.76c0.32-0.4,1.43-0.21,1.53-0.78c-0.62,0.13-1.32,0.4-1.29-0.37 c0.54,0.42,0.83-0.18,1.29,0.18c0.13-0.53,0.87-0.63,1.01-1.16c-0.63,0.03-1.23,0.04-1.54-0.18c-0.1,0.33,0.38,0.49,0.01,0.57 c-0.87,0.08-0.41-0.84-1.54-0.56c0.41,0.68-0.87,0.12-0.76,0.58C103.03,11.7,103.13,11.82,103.09,12.04z M103.01,29.69 c1.38-0.17,2.36-1.12,3.09-0.22c0.25-0.51,0.57-1.72-0.53-1.72C105.73,28.95,103.54,28.57,103.01,29.69z M106.62,31 c-0.21-0.49-0.91-1.62-1.56-1.14c0.3,0.03,0.28,0.3,0.26,0.57c-0.64-0.03-0.79,0.31-1.28,0.39c-0.11-0.43-0.56-0.61-0.78-0.95 c0.39,0.64-0.09,1.21,0.27,1.53C104.5,30.93,105.94,31.3,106.62,31z M108.39,27.92c-0.32,0.08-0.52,0.25-0.51,0.58 c2.71,0.17,1.69-1.54,1.78-2.13c-2.28,0.08-2.79,0.75-4.36,1C106.55,28.23,107.37,27.18,108.39,27.92z M109.71,30.78 c-0.17-1.11-0.97-0.78-2.33-0.74c0.02,0.33-0.05,0.6-0.25,0.77C108.03,31.1,108.99,30.9,109.71,30.78z M110.98,29.42 c-0.83-0.44-1.13-0.08-1.81-0.55C108.36,29.87,110.42,30.27,110.98,29.42z M112.31,12.33c-0.05-0.29,0.09-0.71-0.26-0.76 c-0.03,0.43-0.65-0.24-1.28,0.02c0.05,0.29-0.09,0.71,0.27,0.76C111.21,11.68,111.8,12.21,112.31,12.33z M112.5,27.48 c-0.48,0.05-0.57-0.21-1.03-0.18C111.12,28.16,112.66,28.33,112.5,27.48z M116.3,22.82c-0.31,0.48-1.02,0.65-1.53,0.98 C115.48,24.74,117.34,23.63,116.3,22.82z M118.94,9.74c-0.3-0.03-0.28-0.3-0.26-0.57c-1.3-0.37-1.27,0.32-2.3,0.03 c0.34,0.47-0.56,0.94,0.01,0.96c0.01-0.12,0.03-0.23,0.25-0.2C117.32,10.16,118.61,10.3,118.94,9.74z M120.22,27.38 c0-0.26-0.01-0.51-0.01-0.77c-0.55-0.25-0.76,0.11-1.55-0.17C118.83,27.02,119.25,27.41,120.22,27.38z M142.51,10.11 c0.34,0.19,0.95,0.17,1.29,0.36c0.01-0.33-0.07-0.59-0.28-0.76c0.2-0.05,0.51-0.02,0.51-0.2c-0.32-0.03-1.26-0.53-1.28-0.17 c0.16,0.01,0.31,0.02,0.26,0.19C142.69,9.61,142.49,9.78,142.51,10.11z M142.92,17.97c0.96-0.16,0.2,1.02,1.3,0.74 C144.6,17.94,143.32,17.48,142.92,17.97z M143.41,29.09c0,0.19,0.01,0.38,0.01,0.58c1.04,0.48,1.96-0.62,2.32,0.34 c0.27-0.18,0.07-0.71,0.76-0.59C146.43,27.62,144.57,29.52,143.41,29.09z M140.62,18.59c0.99-0.16,1.01-0.26,1.8,0.16 C142.72,17.58,140.78,18.01,140.62,18.59z M139.73,25.51c1.22,0.79,2.46-0.54,3.6,0.12c0.01-0.65-0.77-0.7-1.31-0.94 C141.71,25.71,140.67,25.07,139.73,25.51z M140.87,31.24c-0.01,0.71,1.3,0.64,1.55,0.16C141.87,31.08,141.65,30.99,140.87,31.24z M138.17,24.2c0.22,0.66-0.37,0.74-0.23,1.35c0.45,0,0.8-0.06,1.02-0.21C138.75,24.91,138.79,24.29,138.17,24.2z M137.58,20.37 c0.69-0.03,1.23-0.46,0.75-0.78C137.66,19.54,137.5,19.87,137.58,20.37z M133.19,18.92c0.92-0.09,1.71-0.29,2.3-0.62 c-0.2-0.04-0.3-0.15-0.26-0.38c-1.37,0.4-1.23-0.45-1.81-0.93C133.53,18.05,133.61,18.1,133.19,18.92z M133.72,19.29 c0.14-0.01,0.26-0.16-0.02-0.19C133.69,19.16,133.71,19.22,133.72,19.29z M134.24,20.08c0.33,0.36,0.71,0.72,0.79,1.1 c0.25-0.45,0.87-0.63,0.74-1.36c-0.78,0-1.28,0.19-2.05-0.52c0.06,0.25,0.26,0.5,0.49,0.75c-0.79,0.17-0.51,0.16-1.01-0.18 C132.11,20.4,134.37,20.84,134.24,20.08z M132.47,22c1.14-0.27,0.35-0.79,1.53-0.79c-0.2-0.04-0.3-0.15-0.26-0.38 c-0.79-0.12-0.93,0.21-1.54,0.22C132.16,21.59,133.17,21.47,132.47,22z M129.85,18.79c0.25-0.31,2.17,0.8,2.56-0.43 c-0.83,0.13-1.19-0.11-1.8-0.16C130.69,18.64,129.87,18.42,129.85,18.79z M126.06,22.5c1.14-0.06,2.3-0.11,2.81-0.62 c0,0.26,0.13,0.42,0.27,0.57c-1.9-0.03-1.63,0.87-1.77,1.76c0.34,0.24,0.95,0.23,1.28-0.02c0.03-0.48-0.41-0.59-0.53-0.95 c0.45-0.02,0.8,0.03,1.03,0.17c0.22-0.28,0.19-0.75,1.02-0.59c0.34-0.55-1.37-0.46-0.53-0.76c0.34,0.19,0.95,0.17,1.29,0.36 c0.2-1.36-1.48-0.19-1.81-0.93c-0.11-0.46,1.17,0.09,0.76-0.59c-0.25,0-0.51,0.01-0.77,0.01c-0.05,0.53-0.81,0.56-1.01,0.98 C127.71,21.1,126.42,22.1,126.06,22.5z M130.2,24.54c-0.31,0.47-0.62,0.94-0.75,1.55C130.52,25.98,130.14,24.86,130.2,24.54z M122.72,22.74c0.28,0.22,1.19,0.05,1.54-0.21C123.68,22.45,122.86,22.1,122.72,22.74z M124.38,13.7c0.16-1.43,1.51,0.02,2.04-0.79 c-1.68-0.44-2.02,0.16-3.08-0.34C122.74,13.07,123.87,13.44,124.38,13.7z M122.74,24.08c0.33,1.01,1.6,0.4,2.32,0.16 c0.74,0.67-0.07-0.27,1.29,0.37C125.86,23.5,124.3,24.07,122.74,24.08z M125.58,24.81c0.15,0.99,0.93,0.61,2.07,0.54 c0.28-0.9-1.06-0.92-1.29-0.36C126.02,24.98,125.99,24.75,125.58,24.81z M122.03,11.04c0.45,0.17,1.28,0.05,1.54,0.36 c0.12,0.53-0.96,0.19-1.02,0.59c1.15,0.28,2.79,0.38,4.61-0.26c-0.7-0.16,0.25-0.68,0.24-0.96 C125.16,10.61,123.89,10.3,122.03,11.04z M120.53,13.37c1.05,0.25,1.03,0.32,2.31,0.16C122.91,12.53,120.53,12.16,120.53,13.37z M122.2,22.36l-1.03,0.01c-0.17,0.48,1.11,0.8,1.29,0.36C122.26,22.7,122.16,22.58,122.2,22.36z M127.2,29.96 c-0.12-0.55-0.56-0.87-1.3-0.94C126.06,29.55,126.19,30.09,127.2,29.96z M128,31.48c-0.4,0.29-0.88,1.01,0.27,0.95 C128.13,31.84,128.87,31.64,128,31.48z M128.51,31.28c-0.04-0.71-0.38-0.48-1.03-0.37c-0.04-0.23-0.09-0.45-0.53-0.37 c-0.31,0.63,0.84,0.13,0.53,0.76C127.83,31.3,128.17,31.29,128.51,31.28z M129.76,28.57c-0.57-1.23-0.48-1.8-2.09-1.88 c-0.67,0.49,0.74,1.5-1.01,1.36c0.55-0.54-0.16-0.8,0.24-1.35c-0.82,0.18-0.8-0.29-1.29-0.37c-0.63,0.27,0.47,0.57-0.25,0.77 c-0.75,0.04-1.32-1.04-1.81-0.55c0.24,0.66-1.4,0.56-2.04,0.99c0.67-0.5-0.36-0.38-1.03-0.37c0.82,0.89-0.67,1.6,0.8,2.29 c0.36-0.12,0.03-0.74,0.5-0.77c0.01,0.38,0.71,0.23,0.53,0.76c-0.32,0.5-0.52,0.61-1.28,0.4c0.17,0.52,0.72,0.74,1.56,0.75 c0.53-1,2.1-0.2,3.08-0.62c-0.98-0.48,0.38-1.13-0.29-1.72c-0.5,0.21-0.34,0.89-0.76,1.16c0.05-0.36-0.3-0.42-0.27-0.76 c0.64,0.29,0.75-0.66,0.25-0.58c-0.1,0.61-1.1,0.4-1.28,0.02c-0.35,0.31-0.2,0.99-0.75,1.16c-0.2-0.71,0.43-0.83,0.23-1.54 c1.2-0.75,2.61-0.19,3.6-0.05c-0.01,0.86,1.18,0.77,1.57,1.32C128.27,28.25,129.02,29,129.76,28.57z M131.28,27.58 c-0.3-0.54-1.26-0.57-2.07-0.73C129.36,27.95,130.29,27.22,131.28,27.58z M133.68,32.34c-1.01-0.72-1.93-0.6-3.35-0.51 c-0.13,0.68,0.92,0.45,0.79,1.14c-0.34,0.2-0.96,0.2-1.02,0.59c0.81,0.2,0.62-0.31,1.02-0.4c0.38,0.16,0.82,0.27,0.79,0.75 c-0.26,0.01-0.31-0.15-0.52-0.18C132.99,34.9,131.29,31.79,133.68,32.34z M136.16,26.92c-0.67,0.41-0.88-0.04-1.8-0.16 c-0.06,0.27-0.42,0.33-0.51,0.58C134.73,27.68,136.96,27.77,136.16,26.92z M136.4,25.76c-0.57-0.98,0.47-0.57,1.27-0.79 c0.01-0.6-0.14-1.06-0.54-1.33c-0.29,0.36-0.66,0.66-1.01,0.98c-0.47-1.09-2.15,0.51-2.59-0.91c-0.43,1.18,1.15,0.8,0.81,1.91 C135.5,25.25,135.33,25.33,136.4,25.76z M138.59,32.82c-0.2-0.04-0.51,0-0.52-0.18c-0.85,0.08-1.1,0.6-1.52,0.99 C137.06,33.8,138.68,33.97,138.59,32.82z M138.76,28.21c0.07,0.79,0.86,1.02,1.32,1.51c-0.14-0.6,0.78-0.45,0.49-1.16 C139.8,28.42,139.53,28.92,138.76,28.21z M140.74,37.19c-0.39-0.56,0.28-0.72-0.54-0.95c-0.07,0.64-1.14-0.48-1.29,0.22 C139.88,36.43,139.88,37.15,140.74,37.19z M142.51,35.82c-0.77-0.01-1.69-1.01-2.07-0.15C140.82,35.83,143.19,36.09,142.51,35.82z M142.2,32.95c-0.04,0.23,0.05,0.54-0.24,0.58c0.31-0.76-0.86-0.38-0.54-1.14c-0.43,0.01-0.86,0.02-1.29,0.02 c0.4,0.95-2.09-0.2-1.01,1.17c0.31-0.04,2.38,0.23,3.36,0.32C142.54,33.45,143,33.06,142.2,32.95z M142.86,27.75 c-0.6,0.07-0.99-0.01-1.29-0.17c0.11,0.73,0.35,1.25,1.32,1.7C143.52,28.81,142.69,28.46,142.86,27.75z M146.85,33.81 c-0.5-0.07-0.22-0.74-1.04-0.55c-0.35,0.13-0.02,0.74-0.5,0.78c-0.54-0.3-0.9-1.76-1.57-1.31c0.16,0.01,0.31,0.02,0.26,0.19 c-0.1,0.24-0.32,0.4-0.76,0.4c0.24,0.66,0.57,1.25,1.32,1.51C145.23,34.01,146.05,34.37,146.85,33.81z M147.07,31.7 c-0.26,0.01-0.31-0.15-0.52-0.18c-0.07,0.51,0.37,0.62,1.04,0.55c0.03-0.48,0.03-0.93-0.53-0.95L147.07,31.7z M148.68,34.73 c-0.06-0.6-0.5-0.91-1.31-0.93c0.59,1.18-1.83,1.5-1.74,2.92c1.44,0.16,0.51-0.31,1.02-0.6c0.75,0.15,0.29,0.28,0.27,0.76 c0.76,0.16,1.68,0.09,1.02-0.41c-0.34,0.62-0.51-0.85,0.51-0.4C148.44,35.76,147.58,34.7,148.68,34.73z M149.92,9.76 c0.88-0.36,0.97-0.19,1.78-0.43c0.12-0.75-0.67-0.77-0.8-1.32c-2.02,0.08-3.42-0.05-4.34,0.49c0.2-1.13-2.1-0.29-3.08-0.51 c1.27,0.62,0.73,1.37,1.07,2.28c0.99,0.23,2.51-0.17,3.83-0.66c-0.89-0.09-1.38-0.48-1.81-0.92C147.76,9.16,149.7,9.01,149.92,9.76z M149.32,29.15c1.18-0.01,1.33,0.78,2.34,0.9c0.12-0.67,1.37-0.53,2.04-0.82c0.08-1.17-2.16-0.83-0.79-0.56 c-0.01,0.12-0.03,0.23-0.25,0.2c-0.94-0.3-1.94-0.56-2.35-1.29C148.88,28.03,149.42,28.3,149.32,29.15z M153.8,33.07 c0-0.19-0.01-0.38-0.01-0.57c-1.14,0.3-1.36,0.08-2.07-0.34c-0.26,0.57-1.27,0.61-1.26,1.37c1.06-0.22,1.89-0.18,1.78-0.81 C152.56,32.99,153.13,33.07,153.8,33.07z M168.88,28.47c0.3,0.02,0.28,0.3,0.27,0.57c0.39-0.04,0.95,0.04,1.02-0.22 c-1.7,0.21,0.38-0.53-0.53-0.75C169.57,28.47,168.94,27.8,168.88,28.47z M165.4,33.18c-0.06,0.51,0.55,0.48,1.05,0.55 c-0.07-0.36,0.28-0.43,0.24-0.77C165.95,32.81,166.02,33.24,165.4,33.18z M158.08,29.33c0.67,0.23,0.82,0.38,0.54,0.95 c1.31-0.11,0.29-0.41,0.23-0.97c0.36,0.01,0.98-0.07,0.51-0.2C159,29.22,158.03,28.91,158.08,29.33z M156.95,35.49 c0.29,0.03,0.41,0.2,0.53,0.37c0.6,0.15,1.09-0.7,1.28-0.22c-0.07,0.45-1.12,0.21-1.28,0.6c1.12,0.39,1.79-0.43,2.3-1.01 C159.41,34.63,157.19,34.28,156.95,35.49z M159.56,36.78c-0.79-0.35-3.2,0.62-4.37,0.49c0.1,0.77,3.15,0.32,2.58-0.06 c0.76-0.2,1.67-0.17,1.04,0.36c0-0.11-0.22-0.21-0.26,0.01c0.51-0.01,0.34,0.52,1.04,0.36C159.51,37.59,160.29,36.95,159.56,36.78z M161.33,35.58c-0.35-0.05-0.5-0.26-1.04-0.17c-0.09,0.28-0.3,0.33,0.01,0.57c-0.3,0.04-0.73-0.01-0.77,0.21 C160.41,36.51,161.12,36.22,161.33,35.58z M163.65,35.34l-0.02-0.77c-1.14,0.18-1.65-0.14-1.57-0.92c-0.37,0.11-1.34-0.19-1.28,0.22 c0.38,0.03,0.25,0.46,0.28,0.76c1.1-0.28,1.02,0.37,1.31,0.74C162.79,35.36,163.22,35.35,163.65,35.34z M163.83,32.26 c-0.02,0.49-0.36,0.75-1.01,0.79c-0.13-0.22-0.28-0.43-0.53-0.56c0.09,0.5-0.99,0.18-0.75,0.79c1.02,0.27,1.6-0.13,2.32,0.14 C163.93,33.15,164.99,32.22,163.83,32.26z M167.77,35.03c-1.42,0.2-2.31-1.05-3.36-0.48C165.08,35.03,166.8,35.97,167.77,35.03z M177.52,33.6c-0.39-0.21-1.16-0.13-1.05-0.74c0.36-0.45,0.83,0.35,0.76-0.41c-1.13-0.83-6.7,0.38-5.42-0.23 c-1.4-0.1-1.73,0.54-2.55,0.84c0.33-0.26,0.32-0.72-0.28-0.76c-0.21,0.57-0.65-0.23-1.29,0.04c-0.21,0.23-0.32,0.52-0.23,0.97 c1.21-0.01,2.31,0.41,3.08-0.47c0.19,0.59,0.79,0.3,1.03-0.03c0.11,1.26,2.02-0.13,2.35,0.89c-1.23,0.1-1.71-0.36-2.05,0.44 c0.87-0.44,1.7,0.87,1.81-0.05c0.35,0.18,0.53,0.5,0.79,0.74c0.6-0.02,1.2-0.03,1.8-0.05C176,33.91,177.07,33.97,177.52,33.6z M178.17,37.8c0.02-0.6-0.68-0.64-1.31-0.73C176.92,37.61,177.32,37.88,178.17,37.8z M179.52,31.24c-0.43,0.01-0.86,0.02-1.29,0.04 c0.23,0.54-0.35,0.51-0.23,0.97C179.03,32.28,179.52,31.93,179.52,31.24z M188,38.65c-0.05,0-1.42-0.96-1.8,0.06 C187.65,38.69,189.83,38.78,188,38.65z M191.27,36.04c-0.34,0.01-0.24-0.33-0.53-0.37c-0.42,0.46,0.02-0.07-0.01-0.38 c-0.6,0.08-1.1,0.23-1.27,0.62c0.2,0.04,0.3,0.15,0.27,0.37C190.18,36.16,191.25,36.47,191.27,36.04z M210.27,6.57 c0.62,0.2,3.14-0.28,3.05-0.5C211.64,6.18,210.98,5.39,210.27,6.57z M193.55,34.63c-0.36,0.02-0.57-0.07-0.78-0.17 c-0.09,0.33,0.4,0.48,0.02,0.57c-0.02-0.12-0.05-0.22-0.26-0.18C192.35,35.59,193.9,35.16,193.55,34.63z M195.47,38.02 c-0.39-0.56,0.19-0.66-0.3-1.14c-0.96,0.27-1.1-0.43-2.06,0.26c-0.01-0.19-0.22-0.22-0.27-0.37c0.2-0.05,0.51-0.02,0.51-0.21 c-0.8,0.19-1.41,0.52-1.77,1.02c1.08,0.34,1.29-0.59,2.32-0.08c-0.01,0.25-0.32,0.28-0.24,0.58c0.82-0.2,0.55,0.48,1.05,0.54 C194.47,37.78,194.99,37.37,195.47,38.02z M196.75,8.23c-0.96-0.78-2.14-0.28-3.6-0.46c0.07,0.36-0.28,0.43-0.23,0.78 C194.46,8.26,195.32,8.06,196.75,8.23z M209.77,6.98c0.19-0.55-0.38-0.48-0.29-0.95c-4.32,0.39-8.59,0.05-12.26,0.84 c2.5,0.02,5.67,0.34,7.44,0.3c0.17,0.33-0.72,0.82,0.04,0.96c0.13-0.59,1.07-0.63,1.24-1.2C207.14,7.28,207.89,7.01,209.77,6.98z M210.94,37.45c-0.18-0.45-0.38-0.88-1.07-0.92C209.23,37.08,210.18,37.45,210.94,37.45z M216.38,37.63c-0.17-0.26-1,0.01-1.05-0.34 c0.59,0.03,0.97-0.08,1.02-0.42c-1.01-0.53-4.76-1.15-5.15,0.58C212.88,37.08,214.44,38.34,216.38,37.63z M228.32,3.53 c-1.02,0.05-3.09-0.44-3.83,0.16c0.62,0.08,1.82-0.16,2.57,0.27C227.51,3.84,228.12,3.82,228.32,3.53z M234.02,5.01 c0.03-0.42-0.91-0.05-1.28-0.14C232.57,5.35,234.43,5.59,234.02,5.01z M243.87,34.51c-0.05-0.22,0.02-0.55-0.28-0.56 c-2.03,0.75-4.23,0.65-7.2,0.73c-0.06,0.39-0.68,0.41-0.74,0.8c2.46,0.86,4.93-1.2,6.44-0.3c0.03-0.29-0.12-0.7,0.22-0.78 C242.37,34.81,243.41,34.42,243.87,34.51z M253.23,30.41c-0.05-0.22,0.02-0.54-0.29-0.56c-0.48,0.46-1.73,0.43-2.26,1.26 C251.73,31.01,252.31,30.6,253.23,30.41z M255.24,29.35c0.07,0.54-1.6-0.08-1.53,0.46c0.29,0.03,0.41,0.19,0.54,0.36 C254.9,30.22,255.78,29.49,255.24,29.35z M258.79,28.21c-1.19-0.15-3.05-0.07-3.86,0.2C256,29,258.35,29.71,258.79,28.21z M265.65,26.31c-1.13,0.41-0.67-0.14-0.29-0.56c-0.78,0.16-1,0.69-1.49,1.04c-0.02-0.25-0.46-0.15-0.54-0.36 c0.51-0.22,1.08-0.39,1.25-0.83c-1.48,0.17-1.78,1.56-0.93,1.97c0.2-0.38,1.1-0.58,1.53-0.27C265.44,27.03,265.4,26.58,265.65,26.31 z M268.45,25.59c-1.24,0.1-1.84-0.34-2.61-0.63c0.01,0.25-0.44,0.2-0.49,0.41c1.35-0.18,0.93,0.47,0.56,0.93 C266.88,25.75,268,26.23,268.45,25.59z M273.26,23.98c-0.01-0.52-0.45-0.36-0.04-0.76c-1.84,0.68-3.9,1.14-5.33,1.63 c1.21,0.12,1.54-0.33,2.29-0.51C269.97,25.33,272.61,24.19,273.26,23.98z M278.07,17.94c0.13,0.36,0.14,0.82,0.82,0.72 c-0.23-0.48,0.95-0.94,0.19-1.16C278.86,17.85,278.55,18.27,278.07,17.94z M276.66,20.33c0.98,0.03,1.6-0.17,1.76-0.68 C277.66,19.76,276.87,19.85,276.66,20.33z M41.31,19.62c0.2,0.25,0.63,1.29,1.02,0.77c-0.44-0.08,0.06-0.25,0-0.57 C41.85,19.86,41.77,19.6,41.31,19.62z M41.53,25.19c-1.19-0.32-2-0.05-2.32,0.76c1.15,0.17,1.55,0.89,2.56,1.16 c0.77-0.76-0.72-1.16-1.27-1.54C40.32,25.04,41.71,25.71,41.53,25.19z M123.89,31.74c-0.49-0.07-0.48-0.54-1.29-0.36 c0.03,0.59-0.3,0.92-0.49,1.35C123.34,32.86,123.83,32.45,123.89,31.74z M259.98,36.4c0.98,0.09,0.85-0.55,1.25-0.83 C260.61,35.71,259.92,35.8,259.98,36.4z M153.71,40.37c-0.35-0.01-0.5-0.3-1.04-0.17C153.46,40.97,156.27,40.43,153.71,40.37z M127.36,39.55c0.49-0.05,0.58,0.21,1.03,0.17l-0.01-0.77C127.74,38.94,127.58,39.27,127.36,39.55z M150.08,39.88 c-0.32,0.72,1.55,0.73,1.82,0.34C151.1,40.25,150.66,40.01,150.08,39.88z M116.23,37.4c0.02-0.52-0.44-0.38-0.01-0.77 c-0.64-0.02-1.25-0.02-1.28,0.4c0.38,0.16,0.82,0.28,0.79,0.76c-1.14,0.28-2.25,0.26-3.1-0.15c-0.51,0.2-0.9,0.49-1.28,0.78 c0.03,0.49,0.38,0.74,1.04,0.75c0.51-0.2,0.39-0.85,1.28-0.78c0.46,0.17,0.8,0.42,1.04,0.75c-0.62,0.18-1.04,0.51-1.28,0.98 c1.38,0.23,1.4-1.51,2.31-0.99c0.08,0.62-0.99,0.42-1.02,0.97c2.34,0.75,0.58-1.58,2.05-1.18c0.13-0.68-0.92-0.46-0.79-1.14 c0.69-0.26,1.75-0.26,1.79-0.98C116.5,36.46,117.09,37.46,116.23,37.4z M139.47,38.56c-0.4,0.84-4.4-0.64-3.6,0.64 c0.01-0.65,2.87-0.04,1.82,0.73c0.7,0,0.51-0.33,1.03-0.02c0.04-0.23-0.05-0.54,0.25-0.58c0.64-0.04,1.25-0.06,1.3,0.36 c-0.45,0.02-0.8-0.03-1.04-0.17c-0.08,0.58,0.85,0.38,1.3,0.55c-0.23-1.12,1.49-0.42,1.55-0.03 C142.5,38.56,140.13,39.22,139.47,38.56z M148,38.96c-0.28,0.79,1.81,0.73,1.81,0.15C149.28,38.66,148.58,39.46,148,38.96z M260.73,30.79c-0.01,0.8-2.94,0.63-2.26,1.27c2.42-0.81,5.98-1.59,8.63-2.76C264.74,28.93,263.24,30.66,260.73,30.79z M109.52,36.73c0.75,0.16,0.29,0.28,0.27,0.76c0.9-0.1,1.09-0.42,0.76-0.97C110.16,36.56,109.6,36.47,109.52,36.73z M118.53,35.45 c-0.38-0.16-1-0.14-0.78-0.76c-0.76-0.17-1.68-0.1-1.03,0.4c0-0.25,0.71-0.25,0.77-0.01c-0.06,0.78-1.16,0.58-1.54,0.21 c-0.1,0.46,0.48,0.41,0.27,0.95c0.89-0.1,1.45,0.06,2.06,0.16C117.82,35.78,117.77,35.92,118.53,35.45z M85.8,37.5l0,0.77 c0.91,0.43,0.85-0.41,1.55-0.01c0.05-0.36-0.29-0.42-0.26-0.77c0.31-0.02,0.61-0.06,0.51-0.39C86.81,37.09,86.37,37.34,85.8,37.5z M87.87,37.29c1.33-0.16,3.06-0.04,3.61-0.79C89.79,36.79,88.43,36.15,87.87,37.29z M77.27,29.66c-1.41,1.78,1.34,2,2.58,1.91 C79.32,30.69,77.88,30.49,77.27,29.66z M98.72,40.67c0-0.32,0.72-0.11,0.77-0.39c-0.64,0.03-0.8-0.29-1.29-0.37 C98.13,40.34,98.27,40.62,98.72,40.67z M99.19,35.1c0.11,0.65-0.77,0.58-1.02,0.97c0.57,0.12,0.86,0.25,1.55-0.01 C99.75,35.57,99.58,35.26,99.19,35.1z M98.69,36.64c-1.62,0.04-2.88-0.04-4.9-0.15l0.01,0.77c0.46,0.04,1.29-0.2,1.04,0.37 c-0.73,0.17-0.67-0.26-1.29-0.18c-0.33,0.58,0.1,0.79-0.5,1.35c2.32-0.15,2.19-0.24,4.12-0.23c0.07-0.38-0.35-0.38-0.52-0.57 c0.29-0.16,0.69-0.26,1.29-0.2C98.13,37.35,97.83,36.93,98.69,36.64z M145.41,38.83c0.57,0.09,1.68,0.42,1.8-0.23 C146.8,38.3,145.83,38.58,145.41,38.83z M255.1,31.86c-0.16,0-0.31-0.01-0.27-0.18c-0.17,0.01-0.34,0.02-0.51,0.03 c-0.07,0.6-0.84,0.79,0.06,1.15C254.23,32.26,255.05,32.31,255.1,31.86z M231.32,42.76c0.22-0.47,1.88,0.04,1.52-0.83 C232.52,41.61,230.25,42.17,231.32,42.76z M203.5,38.69c1.31-0.24,3.04,0.6,3.35-0.32C205.25,37.92,204.59,37.79,203.5,38.69z M200.61,37.46c0.05-0.22,0.28-0.31,0.5-0.4c0.27,0.77,1.05,0.53,1.58,0.71C202.63,37.07,199.8,36.53,200.61,37.46z M256.23,33.72 c0.52-0.03,1.03-0.05,1.55-0.08C257.87,32.86,256.27,33.43,256.23,33.72z M254.92,33.4c0.82,0.27-0.5,0.64-0.47,0.98 c0.83,0.13,0.32-0.65,1-0.63c0.02,0.12,0.05,0.22,0.27,0.18C255.97,33.44,255.12,32.87,254.92,33.4z M259.63,34.5 c0.71,0.49,0.65-0.19,1.01-0.44c0.01,0.11,0.22,0.21,0.26-0.01c-1.39-0.43-3.09,0.37-3.56,1.15c1.15-0.23,1.21,0.26,0.55,0.55 c0.88-0.22,1.66-0.62,2.03-0.68C259.61,35.05,259.62,34.77,259.63,34.5z M150.07,39.49c0.88-0.19,2.57,0.05,4.13-0.1 c0.01,0.28-1.08,0.63,0.01,0.57c0.21-0.35,0.55-0.61,1.01-0.79C153.99,38.85,151.43,38.49,150.07,39.49z M155.52,40.71 c1.29-0.15,3.27,0.17,4.13-0.29C158.14,39.99,155.87,40.34,155.52,40.71z M165.24,37.02c-0.71,0.84-2.49,0.39-3.58,1.24 c0.43-0.01,0.16,0.53,0.53,0.56c0-0.56,0.57-0.73,1.01-0.98c0.5,0.61,1.54-0.07,2.34,0.51c-0.82,0.35,0,0.68-0.75,0.98 c1.48-0.26,2.18,0.05,2.84-0.08c-0.67-0.25-1.47-0.41-1.58-1.11c0.7,0.1,0.66,0.78,1.57,0.72c0.07-0.38-0.36-0.37-0.53-0.56 c0.87-0.04,1.11,0.31,1.54-0.24c-1.15,0.05-1.56-0.46-2.09-0.9C166.06,37.55,164.62,37.79,165.24,37.02z M79.33,30.04 c0.47-0.5-0.11-0.58,0.25-1.15C78.49,28.97,78.82,29.67,79.33,30.04z M170.67,37.63c-0.87-0.02-1.64-0.37-2.06,0.25 c1.44,0.18-0.57,1.83,1.07,1.31c-0.77-0.2,0.84-0.26,0.76-0.6c-0.41-0.01-0.89,0.05-0.78-0.36 C170.48,38.47,170.54,38.27,170.67,37.63z M201.43,38.58c-0.67-0.42-1.27-0.14-1.82-0.32C199.85,38.69,201.37,39.21,201.43,38.58z M169.37,37.09c0.45-0.03,0.8,0.02,1.04,0.16c-0.52-0.55,0.32-0.96-0.55-1.14C170.1,36.73,169.47,36.72,169.37,37.09z" fill="url(#a)"/></svg>